<svg width="86" height="132" viewBox="0 0 86 132" fill="none" xmlns="http://www.w3.org/2000/svg">
<g clip-path="url(#clip0_36_189)">
<path d="M-2.69812 50.8227C-2.43468 49.8538 -1.82244 49.4464 -1.03662 49.1224C5.20894 46.5476 11.4373 43.9273 17.6682 41.314C19.0752 40.7239 19.7883 41.2371 19.8754 42.9197C20.4482 53.9963 21.0311 65.0728 21.5841 76.1497C21.6301 77.071 21.8228 77.2254 22.6181 76.9036C25.5057 75.7354 28.4268 74.6572 31.329 73.528C32.7485 72.9757 33.5176 73.588 33.3951 75.24C32.1101 92.5637 30.8184 109.887 29.5335 127.21C29.4672 128.105 29.3293 128.956 28.2956 128.924C27.4821 128.9 27.1707 128.261 27.0558 127.442C26.4407 123.057 25.8062 118.675 25.1838 114.29C24.2042 107.39 23.2206 100.49 22.2647 93.5872C22.1701 92.9038 22.0292 92.7493 21.4296 93.0299C19.3983 93.9809 17.3429 94.8751 15.2987 95.796C14.1655 96.3064 13.6338 96.0726 13.1737 94.7909C9.03943 83.275 4.91354 71.7558 0.779234 60.2399C-0.247559 57.3798 -1.29604 54.5281 -2.42132 51.6531C-2.56439 51.3934 -2.6207 51.1531 -2.69812 50.8227Z" fill="#0E0D0A"/>
<path d="M60.4495 6.85028C60.3911 7.09312 60.288 7.24173 60.2382 7.41126C56.9635 18.5648 53.6929 29.72 50.4232 40.8755C50.3628 41.0816 50.3164 41.2933 50.2369 41.6071C53.9834 41.1309 57.6129 40.6736 61.2407 40.2043C61.8023 40.1317 62.3495 39.9975 62.7827 40.6163C63.2492 41.2826 62.944 41.853 62.6924 42.4316C56.8909 55.7744 51.0882 69.1164 45.2861 82.4587C44.7384 83.7181 44.1936 84.9791 43.6461 86.2386C43.3255 86.9763 42.9876 87.7684 42.0277 87.3251C41.0899 86.8919 41.3098 86.054 41.4707 85.2506C43.4129 75.5532 45.3483 65.8538 47.2813 56.1538C47.3611 55.7531 47.5299 55.3651 47.4152 54.8365C44.8462 55.0714 42.2737 55.3067 39.7012 55.5419C39.1786 55.5897 38.6562 55.6381 38.1335 55.6846C36.8413 55.7997 36.4132 55.3457 36.4744 53.8877C36.6345 50.0743 36.8017 46.2616 36.97 42.4489C37.4918 30.6301 38.0154 18.8115 38.5381 6.99277C38.6176 5.19317 38.8169 4.98681 40.4688 5.0382C46.5727 5.22811 52.6768 5.42563 58.7806 5.60427C59.3322 5.62041 59.8347 5.65569 60.2359 6.25313C60.3505 6.42794 60.3901 6.59688 60.4495 6.85028Z" fill="#0D0C09"/>
<path d="M18.7381 42.7768C19.3363 54.1122 19.9262 65.3406 20.519 76.5691C20.6096 78.2859 21.2678 78.7542 22.72 78.1867C25.6199 77.0535 28.5301 75.9486 31.426 74.8047C32.0924 74.5415 32.3245 74.5791 32.2556 75.4924C30.9796 92.4027 29.7304 109.317 28.4726 126.229C28.4565 126.446 28.4029 126.658 28.3686 126.86C27.9353 126.868 27.9514 126.523 27.9236 126.292C26.6646 115.829 24.9997 105.414 23.5887 94.969C23.5063 94.3587 23.4333 93.7471 23.3382 93.1385C23.1049 91.644 22.4189 91.2082 21.1753 91.774C19.2622 92.6443 17.3449 93.5054 15.4494 94.4163C14.7087 94.7722 14.3393 94.8403 13.9529 93.7526C8.94345 79.6513 3.87783 65.5714 -1.1983 51.4957C-1.45086 50.7954 -1.27853 50.5697 -0.726113 50.3403C5.44744 47.777 11.6112 45.1881 17.7882 42.6337C18.0496 42.5256 18.4196 41.9889 18.7381 42.7768Z" fill="#4862F5"/>
<path d="M42.8039 84.6776C44.6625 75.141 46.5444 65.6884 48.4263 56.2358C48.478 55.9764 48.537 55.7189 48.5821 55.4578C48.8162 54.104 48.3121 53.4945 47.0298 53.6107C44.2074 53.8665 41.3818 54.1005 38.5682 54.4221C37.7849 54.5116 37.547 54.4104 37.5904 53.4654C38.2988 38.0549 38.9748 22.6411 39.6545 7.2277C39.6785 6.68309 39.6277 6.221 40.3971 6.24813C46.5042 6.46353 52.6107 6.62865 58.7175 6.81113C58.8483 6.81504 58.9794 6.84193 59.179 6.86657C59.0483 7.35007 58.9401 7.78211 58.8152 8.20762C55.6454 19.0106 52.4738 29.8127 49.3029 40.6152C48.8057 42.309 49.2669 42.9636 50.8731 42.7666C54.4783 42.3245 58.079 41.852 61.8847 41.3659C55.5814 55.8803 49.3362 70.2607 43.0373 84.6895C42.9315 84.7457 42.8793 84.7537 42.8039 84.6776Z" fill="#4862F5"/>
<path d="M42.9334 84.7007C42.9428 84.9452 42.8265 85.0129 42.6391 84.9488C42.6606 84.8657 42.6821 84.7825 42.7421 84.6465C42.8147 84.6169 42.849 84.6403 42.9334 84.7007Z" fill="#4862F5"/>
</g>
<defs>
<clipPath id="clip0_36_189">
<rect width="71.5153" height="118.681" fill="white" transform="translate(-11 16.3181) rotate(-13.1897)"/>
</clipPath>
</defs>
</svg>
