<svg width="160" height="209" viewBox="0 0 160 209" fill="none" xmlns="http://www.w3.org/2000/svg">
<g clip-path="url(#clip0_36_169)">
<path d="M160.469 65.4859C155.818 67.0995 151.19 68.5923 146.613 70.2625C135.148 74.4467 127.605 82.2159 123.868 93.6847C122.1 99.1096 120.651 104.61 119.321 110.147C119.111 111.022 119.155 112.266 117.951 112.242C116.759 112.219 116.824 110.937 116.608 110.084C114.87 103.222 113.121 96.3711 110.246 89.8497C106.592 81.5625 100.652 75.5991 92.2047 72.0232C87.4638 70.0163 82.5831 68.4419 77.6496 66.9887C76.6828 66.704 75.1016 66.8216 75.1324 65.4111C75.1625 64.0287 76.7527 64.1756 77.7141 63.8816C81.9618 62.5828 86.1647 61.172 90.2835 59.5154C100.657 55.3432 107.619 48.045 111.206 37.5685C113.08 32.0958 114.585 26.5314 115.889 20.9074C115.993 20.4576 116.136 20.0152 116.216 19.5616C116.344 18.8249 116.631 18.1093 117.462 18.139C118.299 18.1689 118.477 18.981 118.65 19.658C119.314 22.2677 119.924 24.8918 120.639 27.4881C121.986 32.3865 123.59 37.1916 125.721 41.8321C130.279 51.7578 138.589 57.1548 148.623 60.5243C152.449 61.8094 156.289 63.0577 160.296 64.2975C160.469 64.6189 160.469 64.9657 160.469 65.4859Z" fill="#100F0C"/>
<path d="M0.469238 33.4462C1.4419 32.4783 2.64009 32.1589 3.8347 31.8929C17.1766 28.9231 25.3108 20.9853 27.8133 7.61277C28.1381 5.87713 28.669 4.17913 29.0981 2.46216C29.267 1.78642 29.371 0.981127 30.252 0.938734C31.3031 0.888159 31.3798 1.77947 31.5681 2.5329C32.5007 6.26448 33.4967 9.97521 34.7031 13.6361C37.3198 21.5772 42.5689 26.9345 50.5655 29.6738C53.1417 30.5563 55.7276 31.4121 58.3171 32.2561C59.0577 32.4975 60.0055 32.5966 59.9757 33.5684C59.9469 34.5085 59.001 34.6204 58.2641 34.8689C55.3149 35.8631 52.3513 36.8205 49.4321 37.8947C42.3255 40.5097 37.6697 45.4703 35.1432 52.4802C33.7564 56.3279 32.6851 60.2549 31.7372 64.2235C31.5551 64.986 31.6159 66.1334 30.4628 66.1729C29.1345 66.2186 29.2613 65.0006 29.046 64.1581C28.1128 60.5063 27.1271 56.8746 25.9292 53.2914C23.305 45.4419 18.0788 40.227 10.2115 37.3833C7.08064 36.2517 3.75759 35.6396 0.635025 34.1282C0.469238 34.0113 0.469238 33.8058 0.469238 33.4462Z" fill="#0E0E0B"/>
<path d="M46.5418 177.083C41.236 164.574 31.3516 157.316 19.1143 152.61C14.6085 150.878 10.0628 149.266 5.4472 147.841C4.67881 147.604 3.54577 147.552 3.57236 146.427C3.59826 145.332 4.6776 145.332 5.47514 145.075C10.0683 143.59 14.6569 142.092 19.2453 140.593C35.3479 135.333 45.6002 124.524 50.7072 108.681C52.9538 101.712 54.8821 94.6689 56.6541 87.5762C56.8859 86.6485 56.753 85.2169 58.0324 85.2122C59.5187 85.2067 59.2848 86.7857 59.4902 87.7381C61.0647 95.0376 62.9091 102.259 65.0652 109.42C69.7958 125.131 79.8138 135.842 95.4398 141.513C100.05 143.187 104.648 144.885 109.33 146.355C110.062 146.585 111.05 146.702 111.073 147.631C111.099 148.71 110.049 148.799 109.232 149.04C103.925 150.602 98.6918 152.364 93.4916 154.251C79.1287 159.462 69.6832 169.259 64.6766 183.447C62.0834 190.796 60.0318 198.281 58.1815 205.831C58.0349 206.429 57.8678 207.023 57.7508 207.627C57.6259 208.271 57.4262 208.862 56.6546 208.914C55.7249 208.977 55.5281 208.296 55.3657 207.579C54.431 203.45 53.545 199.31 52.5247 195.202C51.0033 189.076 49.2746 183.009 46.5418 177.083Z" fill="#0F0E0C"/>
<path d="M142.399 60.3328C146.542 62.1636 150.713 63.4284 155.135 65.176C132.544 69.8224 121.612 84.5934 117.954 106.193C114.067 84.5894 102.84 69.9532 79.9514 65.3976C102.758 60.6433 113.751 45.9096 116.953 24.304C117.167 24.4207 117.381 24.5374 117.595 24.6541C118.084 26.3495 118.564 28.0476 119.065 29.7396C119.567 31.4368 120.044 33.1431 120.612 34.8193C123.29 42.7285 126.813 50.1175 133.789 55.3532C136.409 57.3194 139.23 58.9429 142.399 60.3328Z" fill="#4862F5"/>
<path d="M31.3535 57.1989C30.8731 58.1748 31.0952 59.2285 30.2297 59.9966C28.5156 53.8637 26.7961 47.7914 22.5219 42.8815C18.1766 37.89 12.1016 35.7863 5.90222 33.4434C20.2748 30.235 27.5772 20.8551 30.177 7.1438C31.7227 11.1165 32.7349 15.145 34.6219 18.8597C36.5904 22.7348 39.3038 25.9078 42.9976 28.2932C46.6257 30.6361 50.7 31.9652 54.9615 33.4999C52.6462 34.3792 50.5617 35.1787 48.4715 35.9634C40.8196 38.836 35.8496 44.2385 33.1461 51.7643C32.5217 53.5023 31.9783 55.2687 31.3535 57.1989Z" fill="#4862F5"/>
<path d="M57.5667 199.505C57.1363 200.514 57.3002 201.532 56.4947 202.397C55.1511 196.876 53.7232 191.498 52.2653 186.128C47.3333 167.96 35.8994 155.881 17.8672 149.799C14.9249 148.807 12.0332 147.669 9.12115 146.59C9.07308 146.573 9.06391 146.453 9.04651 146.407C13.2115 144.943 17.3774 143.482 21.5417 142.016C36.8576 136.624 46.8632 126.17 52.1109 111.082C54.3148 104.745 56.16 98.3141 57.9666 91.2505C58.9062 95.0167 59.6841 98.2459 60.5196 101.461C62.3248 108.406 64.5549 115.193 67.9244 121.591C73.2354 131.677 81.7921 138.064 92.1478 142.389C96.0971 144.038 100.157 145.43 104.167 146.939C104.734 147.152 105.423 147.133 105.745 147.697C101.421 149.21 97.0816 150.701 92.7621 152.245C77.8209 157.586 67.9842 167.823 62.748 182.536C60.7816 188.061 59.0621 193.65 57.5667 199.505Z" fill="#4862F5"/>
</g>
<defs>
<clipPath id="clip0_36_169">
<rect width="160" height="209" fill="white"/>
</clipPath>
</defs>
</svg>
