<svg width="127" height="210" viewBox="0 0 127 210" fill="none" xmlns="http://www.w3.org/2000/svg">
<g clip-path="url(#clip0_36_183)">
<path d="M-12.8385 72.6683C-12.1786 71.1226 -11.0315 70.5614 -9.60102 70.1681C1.76852 67.0417 13.1177 63.8377 24.47 60.6456C27.0333 59.9248 28.1624 60.8942 27.9605 63.6746C26.6317 81.9784 25.3201 100.284 23.9568 118.584C23.8434 120.107 24.1453 120.394 25.5918 120.006C30.8438 118.597 36.1349 117.342 41.4041 116C43.9812 115.344 45.1865 116.486 44.6277 119.179C38.7678 147.42 32.8962 175.659 27.0363 203.9C26.7338 205.358 26.3164 206.732 24.5304 206.498C23.1251 206.313 22.7189 205.209 22.6914 203.843C22.5441 196.528 22.3628 189.213 22.2026 181.899C21.9506 170.386 21.6916 158.873 21.4813 147.36C21.4605 146.22 21.2486 145.942 20.1501 146.297C16.4284 147.5 12.6769 148.606 8.9392 149.758C6.86731 150.396 5.99428 149.918 5.46516 147.73C0.710739 128.074 -4.02853 108.415 -8.7831 88.7589C-9.96394 83.8772 -11.1841 79.0055 -12.5326 74.0818C-12.7263 73.6297 -12.7735 73.2249 -12.8385 72.6683Z" fill="#0E0D0A"/>
<path d="M105.878 11.5793C105.725 11.968 105.515 12.194 105.394 12.4638C97.3769 30.2133 89.3671 47.9662 81.3587 65.7198C81.2107 66.0479 81.0859 66.3874 80.8823 66.889C87.4785 66.7694 93.8679 66.66 100.257 66.5307C101.246 66.5106 102.223 66.3868 102.844 67.4805C103.513 68.6579 102.865 69.5412 102.307 70.4476C89.4502 91.3476 76.5912 112.246 63.7331 133.145C62.5194 135.118 61.3104 137.094 60.097 139.067C59.3865 140.222 58.6345 141.464 57.063 140.566C55.5276 139.688 56.0847 138.35 56.5321 137.058C61.9329 121.466 67.3223 105.869 72.7076 90.2711C72.9301 89.6268 73.304 89.019 73.2161 88.13C68.7122 88.0616 64.2021 87.9931 59.692 87.9245C58.7759 87.9106 57.8599 87.8977 56.9438 87.8817C54.6791 87.8422 54.0319 87.0204 54.4436 84.6353C55.5207 78.3969 56.6101 72.161 57.7012 65.9254C61.0837 46.5956 64.4694 27.2665 67.8534 7.93699C68.3687 4.99374 68.7576 4.68988 71.611 5.06657C82.1554 6.45853 92.6985 7.86303 103.245 9.23645C104.198 9.36055 105.062 9.50743 105.632 10.5602C105.794 10.8677 105.828 11.1524 105.878 11.5793Z" fill="#0D0C09"/>
<path d="M26.0185 63.2386C24.6794 81.9721 23.3483 100.528 22.0221 119.085C21.8193 121.923 22.8624 122.809 25.4995 122.133C30.7655 120.784 36.0433 119.483 41.3047 118.115C42.5153 117.801 42.91 117.904 42.599 119.392C36.8412 146.956 31.1292 174.53 25.4025 202.1C25.3292 202.453 25.1918 202.791 25.0898 203.119C24.3369 203.055 24.4371 202.491 24.4373 202.106C24.4478 184.689 23.7444 167.279 23.4875 149.865C23.4725 148.848 23.4741 147.83 23.4369 146.813C23.3456 144.316 22.2475 143.478 19.9724 144.188C16.4728 145.28 12.9677 146.356 9.48984 147.517C8.13096 147.971 7.47609 148.017 7.03411 146.162C1.30407 122.102 -4.52785 98.0685 -10.3789 74.0396C-10.67 72.8441 -10.3238 72.5036 -9.31787 72.2244C1.92439 69.1042 13.1551 65.9403 24.4013 62.8355C24.8774 62.704 25.6315 61.8876 26.0185 63.2386Z" fill="#28B3AC"/>
<path d="M58.9639 136.353C64.186 121.01 69.4309 105.809 74.6759 90.6084C74.8199 90.1913 74.9761 89.7785 75.1091 89.3575C75.7988 87.1741 75.0525 86.0833 72.8047 86.0475C67.8571 85.9685 62.9085 85.8532 57.9622 85.8838C56.5852 85.8924 56.194 85.6839 56.4674 84.1387C60.9264 58.9397 65.3301 33.7295 69.74 8.52055C69.8958 7.62983 69.9047 6.86149 71.2331 7.04221C81.7776 8.47661 92.3316 9.82828 102.882 11.2085C103.108 11.2381 103.33 11.3055 103.671 11.3813C103.343 12.1527 103.065 12.8435 102.759 13.5207C94.998 30.7126 87.2337 47.9029 79.4706 65.0939C78.2534 67.7894 78.9159 68.9466 81.7424 68.9071C88.0863 68.8184 94.4291 68.6789 101.13 68.5534C87.1573 91.29 73.3134 113.817 59.3662 136.413C59.1708 136.487 59.0787 136.491 58.9639 136.353Z" fill="#28B3AC"/>
<path d="M59.1837 136.414C59.1488 136.817 58.933 136.908 58.6213 136.769C58.6761 136.636 58.7309 136.504 58.8634 136.291C58.9956 136.255 59.05 136.299 59.1837 136.414Z" fill="#28B3AC"/>
</g>
<defs>
<clipPath id="clip0_36_183">
<rect width="125" height="196" fill="white" transform="translate(-20 14.4974) rotate(-6.6601)"/>
</clipPath>
</defs>
</svg>
