<?xml version="1.0" standalone="no"?>
<!DOCTYPE svg PUBLIC "-//W3C//DTD SVG 20010904//EN"
 "http://www.w3.org/TR/2001/REC-SVG-20010904/DTD/svg10.dtd">
<svg version="1.0" xmlns="http://www.w3.org/2000/svg"
 width="1802.000000pt" height="2330.000000pt" viewBox="0 0 1802.000000 2330.000000"
 preserveAspectRatio="xMidYMid meet">

<g transform="translate(0.000000,2330.000000) scale(0.100000,-0.100000)"
fill="#006224" stroke="none">
<path d="M9065 19313 c-46 -12 -86 -46 -114 -99 -27 -49 -27 -99 0 -148 26
-50 37 -60 88 -87 75 -39 156 -14 218 68 23 30 28 46 28 94 0 49 -5 63 -31 96
-50 62 -124 92 -189 76z"/>
<path d="M9080 18464 c-11 -26 -20 -50 -20 -55 0 -5 -6 -23 -14 -41 -8 -18
-21 -51 -29 -73 -8 -22 -24 -67 -37 -100 -12 -33 -28 -77 -36 -97 -8 -21 -20
-55 -28 -75 -32 -90 -59 -161 -72 -195 -8 -21 -20 -55 -28 -75 -8 -21 -21 -56
-29 -78 -8 -22 -32 -87 -52 -145 -20 -58 -43 -118 -50 -135 -7 -16 -20 -47
-29 -68 -9 -21 -16 -42 -16 -48 0 -6 -6 -25 -14 -42 -7 -18 -24 -61 -36 -97
-12 -36 -29 -79 -36 -97 -8 -17 -14 -38 -14 -46 0 -9 -4 -19 -10 -22 -21 -13
-10 -45 17 -51 32 -8 57 6 61 34 2 11 10 26 18 32 8 7 14 23 14 35 0 13 7 25
15 29 8 3 15 16 15 30 0 13 7 26 15 30 8 3 15 16 15 29 0 13 9 32 20 42 11 10
20 26 20 35 0 10 7 23 15 30 8 7 15 20 15 30 0 10 7 23 15 30 8 7 15 23 15 37
0 13 7 26 15 29 8 4 15 17 15 30 0 14 7 27 15 30 8 4 15 16 15 29 0 12 9 30
20 40 11 10 20 26 20 35 0 10 7 23 15 30 8 7 15 21 15 32 0 11 14 31 30 45 18
15 30 34 30 49 0 13 9 28 20 34 12 6 20 21 20 35 0 13 6 28 14 32 8 4 16 19
18 33 3 22 8 25 48 25 40 0 45 -3 48 -25 2 -14 10 -29 18 -33 8 -4 14 -19 14
-33 0 -13 7 -27 15 -30 8 -4 15 -16 15 -28 0 -12 16 -37 35 -56 19 -19 35 -41
35 -51 0 -9 7 -22 15 -29 8 -7 15 -23 15 -35 0 -13 7 -25 15 -29 8 -3 15 -17
15 -31 0 -14 7 -28 15 -31 8 -4 15 -16 15 -29 0 -12 9 -30 20 -40 11 -10 20
-26 20 -35 0 -10 7 -23 15 -30 8 -7 15 -23 15 -35 0 -13 7 -25 15 -29 8 -3 15
-17 15 -31 0 -14 7 -28 15 -31 8 -4 15 -16 15 -29 0 -12 9 -30 20 -40 11 -10
20 -26 20 -35 0 -10 7 -23 15 -30 8 -7 15 -23 15 -35 0 -13 6 -25 14 -28 8 -3
16 -18 18 -34 2 -23 8 -28 33 -31 58 -5 61 7 25 104 -46 127 -60 165 -75 199
-7 17 -30 77 -50 135 -40 115 -55 155 -78 215 -68 175 -87 227 -87 238 0 7 -4
17 -9 23 -5 5 -14 25 -19 44 -6 19 -20 60 -32 90 -12 30 -26 71 -32 90 -5 19
-14 39 -19 45 -5 5 -9 16 -9 25 0 8 -7 28 -15 43 -8 15 -19 42 -24 60 -5 18
-19 57 -31 87 -12 30 -25 67 -30 83 -15 47 -44 107 -51 107 -5 0 -17 -21 -29
-46z"/>
<path d="M9095 17800 c-6 -10 -72 -140 -408 -800 -105 -206 -250 -492 -323
-635 -72 -143 -162 -318 -198 -390 -36 -71 -66 -133 -66 -137 0 -5 34 -8 75
-8 74 0 75 0 75 25 0 14 7 28 15 31 8 4 15 16 15 29 0 14 14 35 35 54 19 17
35 39 35 49 0 11 7 25 15 32 8 7 15 23 15 35 0 13 7 25 15 29 8 3 15 16 15 29
0 15 13 34 35 53 21 17 35 38 35 52 0 12 7 25 15 28 8 4 15 16 15 29 0 12 7
28 15 35 8 7 15 20 15 29 0 9 16 32 35 51 19 19 35 45 35 56 0 12 7 24 15 28
8 3 15 16 15 29 0 14 7 30 15 37 8 7 15 20 15 29 0 10 16 32 35 51 19 19 35
41 35 51 0 9 7 22 15 29 8 7 15 22 15 34 0 12 13 33 30 46 16 14 29 35 30 48
0 12 7 25 15 28 8 4 15 16 15 29 0 12 9 30 20 40 11 10 20 26 20 35 0 9 14 29
30 45 17 16 30 36 30 46 0 9 7 22 15 29 8 7 15 22 15 35 0 12 9 30 20 40 11
10 20 25 20 34 0 27 45 61 80 61 38 0 80 -35 80 -68 0 -12 7 -25 15 -28 8 -4
15 -16 15 -29 0 -12 9 -30 20 -40 11 -10 20 -26 20 -35 0 -9 14 -29 30 -45 17
-16 30 -39 30 -51 0 -12 7 -24 15 -28 8 -3 15 -17 15 -31 0 -14 7 -28 15 -31
8 -4 15 -16 15 -29 0 -14 14 -35 35 -54 19 -17 35 -39 35 -49 0 -11 7 -25 15
-32 8 -7 15 -21 15 -32 0 -10 16 -32 35 -49 19 -17 35 -40 35 -51 0 -11 7 -26
15 -34 8 -9 15 -24 15 -35 0 -11 7 -22 15 -25 8 -4 15 -16 15 -28 0 -12 16
-37 35 -56 19 -19 35 -44 35 -56 0 -12 7 -24 15 -28 8 -3 15 -16 15 -30 0 -13
7 -26 15 -30 8 -3 15 -15 15 -27 0 -12 16 -37 35 -56 19 -19 35 -42 35 -52 0
-10 7 -24 15 -31 8 -7 15 -20 15 -30 0 -10 7 -23 15 -30 8 -7 15 -21 15 -32 0
-10 14 -32 30 -48 17 -16 30 -37 30 -47 0 -10 9 -26 20 -36 11 -9 20 -26 20
-37 0 -18 7 -20 75 -20 41 0 75 2 75 4 0 3 -190 379 -437 866 -72 140 -207
406 -301 590 -288 567 -271 536 -287 510z"/>
<path d="M9068 17178 c-18 -29 -36 -60 -39 -69 -4 -8 -26 -46 -49 -84 -23 -37
-46 -78 -51 -89 -5 -12 -15 -30 -21 -40 -49 -73 -78 -122 -78 -127 0 -4 -52
-95 -115 -203 -63 -108 -115 -198 -115 -200 0 -2 -48 -85 -106 -183 -58 -98
-110 -187 -115 -198 -12 -26 -26 -49 -66 -111 -18 -28 -33 -53 -33 -57 0 -3
-29 -55 -65 -116 -36 -60 -65 -112 -65 -115 0 -3 -12 -22 -26 -43 -14 -21 -30
-47 -35 -58 -5 -11 -13 -27 -18 -35 -27 -41 -213 -364 -246 -425 -21 -38 -44
-77 -51 -86 -8 -8 -14 -19 -14 -22 0 -4 -18 -36 -40 -72 -22 -36 -40 -70 -40
-75 0 -7 500 -10 1430 -10 787 0 1430 2 1430 5 0 2 -13 27 -30 55 -16 28 -30
53 -30 55 0 2 -49 87 -110 190 -60 103 -110 188 -110 191 0 3 -222 387 -240
414 -6 8 -13 22 -17 30 -4 8 -22 38 -40 67 -18 29 -33 54 -33 57 0 2 -29 54
-65 115 -36 60 -65 114 -65 120 0 6 -4 11 -8 11 -4 0 -20 24 -35 53 -15 28
-32 59 -37 67 -61 103 -110 189 -110 193 0 3 -13 25 -29 49 -26 39 -76 124
-101 173 -6 11 -20 37 -33 57 -12 21 -51 88 -87 150 -35 62 -70 122 -77 133
-7 11 -17 32 -24 48 -6 15 -15 27 -19 27 -4 0 -13 12 -19 28 -21 52 -101 182
-113 182 -3 0 -21 -24 -40 -52z"/>
<path d="M12560 16850 c0 -6 33 -43 73 -83 55 -54 76 -82 81 -109 8 -45 3 -60
-51 -131 -35 -49 -43 -67 -43 -103 0 -30 5 -46 15 -50 8 -4 15 -11 15 -18 0
-6 7 -24 16 -41 12 -22 16 -53 15 -113 -1 -91 -9 -110 -72 -173 -49 -49 -89
-136 -89 -193 0 -56 35 -128 89 -181 23 -21 41 -44 41 -51 0 -7 16 -31 35 -54
19 -23 35 -49 35 -58 0 -10 7 -35 15 -57 8 -22 14 -75 15 -118 0 -67 -4 -85
-27 -125 -34 -60 -53 -83 -64 -76 -14 9 -10 43 9 71 14 22 17 46 15 126 -3 91
-5 102 -33 143 -16 25 -30 48 -30 51 0 9 -61 62 -101 88 -24 15 -53 24 -90 25
-73 3 -79 2 -79 -14 0 -8 -6 -16 -12 -19 -7 -2 7 -10 32 -16 125 -34 194 -212
122 -316 -36 -51 -57 -56 -66 -14 -3 17 -6 42 -6 54 0 37 -37 108 -72 140 -48
44 -150 95 -190 95 -19 0 -43 -7 -54 -15 -10 -8 -25 -15 -32 -15 -19 0 -72
-42 -66 -52 3 -4 36 -8 73 -8 71 0 87 -9 134 -80 34 -50 10 -153 -45 -193 -70
-51 -89 -68 -154 -137 -38 -41 -84 -93 -101 -115 -40 -53 -133 -212 -133 -228
0 -7 -6 -21 -14 -32 -7 -11 -17 -36 -21 -55 -4 -19 -11 -40 -16 -45 -4 -6 -13
-40 -19 -75 -7 -36 -16 -85 -20 -110 -14 -71 -11 -244 4 -323 8 -40 17 -90 21
-112 7 -47 33 -122 52 -150 7 -11 13 -27 13 -36 0 -9 12 -38 26 -65 114 -212
129 -265 154 -564 6 -69 9 -134 6 -145 -7 -32 -33 -119 -40 -136 -5 -11 25
-48 106 -130 121 -122 135 -138 214 -240 95 -122 244 -368 244 -403 0 -6 9
-19 20 -29 11 -9 20 -25 20 -36 0 -17 18 -31 39 -31 5 0 34 53 66 118 31 64
61 125 66 134 5 10 9 23 9 30 0 7 7 25 14 41 18 34 46 135 56 204 5 29 14 69
22 90 20 58 16 433 -6 492 -9 24 -16 60 -16 80 0 20 -7 49 -15 65 -8 15 -15
37 -15 48 0 11 -6 32 -14 46 -7 15 -24 54 -36 87 -42 113 -88 200 -157 300
-142 202 -176 313 -135 431 11 32 28 75 38 94 19 40 121 140 143 140 8 0 23 8
33 17 17 16 21 15 64 -15 24 -18 49 -32 55 -32 32 0 252 212 311 300 25 36 55
88 67 115 13 28 30 62 37 77 8 14 14 37 14 50 0 12 7 32 15 42 8 11 15 35 15
53 0 18 7 50 15 71 32 80 6 465 -34 505 -6 6 -11 17 -11 24 0 14 -66 153 -105
222 -14 24 -25 55 -25 68 0 29 30 70 68 95 31 20 112 24 130 6 18 -18 26 -2 9
22 -26 38 -82 60 -148 60 -65 0 -80 -10 -148 -97 -14 -18 -28 -30 -33 -27 -15
10 -8 37 22 86 56 90 35 184 -63 285 -67 69 -66 61 -14 170 l20 42 -22 41
c-11 22 -21 49 -21 60 0 10 -5 22 -10 25 -6 4 -16 21 -24 38 -25 59 -93 135
-147 161 -52 27 -99 34 -99 16z"/>
<path d="M8800 13839 c-30 -5 -102 -13 -160 -18 -58 -5 -118 -14 -135 -20 -16
-5 -57 -12 -89 -15 -33 -4 -65 -11 -72 -17 -6 -5 -36 -12 -65 -16 -30 -3 -66
-12 -81 -19 -15 -8 -40 -14 -55 -14 -15 0 -41 -7 -57 -15 -15 -8 -37 -15 -48
-15 -11 0 -34 -6 -51 -13 -18 -8 -63 -24 -102 -36 -38 -13 -84 -29 -102 -37
-17 -8 -38 -14 -46 -14 -8 0 -20 -7 -27 -15 -7 -8 -19 -15 -27 -15 -8 0 -27
-7 -41 -15 -15 -8 -49 -24 -77 -35 -52 -23 -119 -55 -145 -70 -8 -5 -22 -11
-30 -14 -8 -4 -28 -15 -45 -26 -16 -11 -43 -27 -60 -35 -16 -9 -43 -24 -60
-35 -16 -11 -36 -23 -44 -27 -13 -6 -87 -53 -135 -85 -10 -7 -49 -35 -86 -63
-37 -27 -78 -57 -90 -65 -12 -8 -32 -23 -43 -34 -12 -10 -55 -46 -96 -80 -78
-64 -296 -277 -369 -360 -104 -118 -271 -337 -342 -451 -13 -20 -115 -192
-140 -235 -14 -24 -91 -182 -108 -220 -8 -19 -19 -42 -24 -50 -4 -8 -11 -22
-14 -30 -3 -8 -14 -33 -25 -56 -10 -23 -19 -46 -19 -53 0 -6 -4 -19 -10 -29
-11 -18 -36 -89 -50 -137 -8 -31 -19 -64 -40 -125 -7 -19 -15 -53 -19 -75 -4
-22 -13 -50 -19 -62 -7 -12 -16 -48 -22 -80 -11 -70 -27 -152 -42 -213 -6 -25
-14 -92 -19 -150 -5 -58 -13 -132 -18 -165 -16 -103 -13 -847 4 -940 8 -44 15
-103 15 -131 0 -28 7 -73 15 -100 8 -27 15 -66 15 -86 0 -21 6 -55 14 -75 8
-21 17 -58 20 -82 4 -24 13 -56 21 -72 8 -15 15 -41 15 -56 0 -15 7 -37 15
-47 8 -11 15 -32 15 -46 0 -14 7 -35 15 -46 8 -10 15 -28 15 -39 0 -11 7 -33
15 -49 8 -15 15 -33 15 -38 0 -10 55 -138 81 -188 4 -8 27 -53 50 -100 55
-108 127 -231 184 -315 84 -122 118 -170 125 -175 4 -3 35 -39 68 -81 55 -70
253 -275 328 -340 31 -28 235 -183 274 -209 12 -8 32 -22 44 -31 11 -8 28 -19
36 -22 8 -4 29 -16 45 -27 17 -11 44 -26 60 -35 17 -9 50 -27 75 -40 25 -13
53 -24 62 -24 9 -1 19 -5 22 -10 4 -5 27 -19 54 -31 26 -12 65 -30 88 -41 23
-10 46 -19 52 -19 6 0 23 -6 39 -14 43 -21 96 -38 208 -68 85 -22 319 5 412
48 17 7 39 14 50 14 94 1 319 157 473 329 53 60 107 133 157 216 25 42 93 182
93 192 0 6 7 24 15 39 8 16 15 40 15 54 1 14 7 36 15 50 8 14 14 39 15 57 0
18 7 58 15 90 21 79 21 351 0 419 -8 27 -15 64 -15 82 0 18 -7 49 -15 69 -8
19 -15 43 -15 52 0 9 -7 29 -15 45 -8 15 -15 33 -15 38 0 5 -8 28 -19 51 -10
23 -21 49 -25 57 -3 8 -15 29 -26 45 -11 17 -25 42 -31 58 -6 15 -15 27 -20
27 -5 0 -9 6 -9 13 0 8 -9 25 -20 38 -11 13 -23 29 -28 34 -4 6 -29 36 -55 68
-26 33 -47 63 -47 68 0 5 -30 40 -67 77 -63 64 -86 98 -127 195 -21 50 -21
174 0 226 29 74 8 97 -109 116 -21 4 -51 13 -65 21 -15 8 -34 14 -43 14 -9 0
-19 7 -23 15 -3 8 -12 15 -19 15 -8 0 -22 10 -33 21 -10 12 -44 41 -75 65 -68
52 -189 221 -166 230 9 3 30 -2 47 -11 30 -16 80 -14 80 3 0 4 -27 43 -60 87
-62 82 -126 201 -132 244 -2 14 -8 26 -14 28 -34 11 -229 -233 -270 -337 -3
-8 -11 -26 -16 -40 -27 -62 -49 -129 -58 -175 -5 -27 -13 -70 -19 -95 -6 -25
-10 -92 -10 -150 0 -58 4 -125 10 -150 6 -25 14 -67 19 -95 11 -60 55 -181 81
-225 5 -8 14 -25 19 -38 22 -52 107 -162 188 -244 48 -49 90 -88 95 -88 14 0
138 -117 163 -154 35 -52 64 -134 71 -204 11 -110 -38 -245 -119 -330 -51 -53
-72 -62 -151 -62 -51 0 -74 6 -132 36 -38 20 -77 42 -86 50 -8 8 -19 14 -23
14 -13 0 -161 118 -222 178 -115 112 -229 272 -298 417 -81 170 -106 231 -106
254 0 11 -4 22 -9 25 -5 4 -12 25 -16 49 -6 39 -15 69 -51 187 -8 25 -14 63
-14 85 0 22 -5 67 -10 100 -6 33 -19 164 -30 290 -17 198 -18 253 -9 390 14
219 33 361 65 486 8 30 14 71 14 90 0 19 7 47 15 63 8 15 15 40 15 55 0 14 7
39 15 55 8 15 15 36 15 45 1 9 9 34 20 56 11 22 19 45 20 52 0 6 6 24 14 40 8
15 42 85 75 154 59 122 184 320 267 425 73 92 237 261 317 327 21 18 52 44 70
59 35 32 214 153 299 203 74 43 304 151 342 161 15 3 29 10 32 15 3 5 14 9 26
9 11 0 34 7 51 15 18 8 50 19 72 24 49 12 112 28 168 41 23 6 77 15 120 20 43
5 101 14 130 20 111 24 547 4 697 -32 25 -6 68 -14 96 -18 28 -4 60 -12 70
-18 11 -6 35 -12 54 -14 35 -3 35 -3 40 42 5 44 6 45 43 48 34 3 44 -2 97 -54
33 -32 60 -65 60 -73 1 -32 48 -70 150 -121 114 -57 123 -61 190 -104 104 -66
208 -138 237 -164 18 -15 49 -41 70 -59 42 -34 163 -153 234 -229 116 -125
302 -405 378 -569 18 -38 39 -83 47 -98 8 -16 14 -34 14 -40 0 -11 28 -86 56
-154 8 -17 14 -42 14 -55 0 -12 7 -32 15 -42 8 -11 15 -35 15 -53 0 -19 7 -47
15 -63 9 -16 18 -51 22 -77 3 -26 12 -58 20 -73 7 -14 13 -43 13 -65 0 -23 5
-46 11 -52 6 -6 15 -37 19 -69 5 -33 13 -78 19 -101 28 -110 33 -134 42 -218
5 -49 14 -106 19 -125 13 -47 12 -513 -1 -570 -6 -25 -14 -81 -19 -125 -10
-93 -25 -171 -46 -236 -8 -26 -14 -57 -14 -70 0 -13 -7 -37 -15 -53 -8 -15
-15 -36 -15 -45 -1 -9 -9 -34 -20 -56 -11 -22 -19 -48 -20 -57 0 -9 -6 -29
-14 -45 -8 -15 -24 -53 -36 -83 -25 -62 -107 -230 -150 -305 -78 -137 -181
-204 -294 -192 -92 9 -187 88 -244 201 -43 86 -72 156 -72 173 0 8 -6 29 -14
46 -8 18 -17 52 -19 77 -2 25 -10 84 -17 132 -11 70 -11 104 -1 180 7 51 16
131 21 178 4 47 13 98 19 113 6 16 11 41 11 56 0 29 25 116 67 236 13 39 29
84 34 102 5 18 14 35 19 38 6 4 10 15 10 27 0 11 7 32 15 46 8 15 24 50 35 77
11 28 25 57 30 65 6 8 13 22 16 30 3 8 10 22 15 30 5 8 12 21 16 29 4 8 21 37
40 65 18 28 33 56 33 63 0 7 3 13 8 13 4 0 16 16 27 36 30 56 82 125 225 298
47 57 79 104 76 113 -3 7 -13 42 -22 76 -20 80 -96 308 -124 372 -34 80 -164
335 -201 395 -59 95 -132 190 -151 196 -22 7 -110 -46 -193 -114 -6 -5 -34
-25 -61 -44 -123 -87 -344 -312 -482 -493 -59 -76 -110 -146 -115 -155 -4 -8
-15 -27 -25 -41 -9 -15 -43 -71 -75 -125 -32 -55 -62 -106 -67 -114 -5 -8 -19
-35 -30 -60 -12 -25 -37 -77 -56 -116 -19 -39 -34 -76 -34 -82 0 -6 -8 -25
-17 -44 -9 -18 -22 -45 -30 -60 -7 -14 -13 -31 -13 -38 0 -7 -6 -26 -13 -43
-15 -35 -45 -128 -72 -222 -9 -33 -23 -80 -31 -105 -8 -25 -14 -57 -14 -72 0
-15 -5 -39 -11 -55 -13 -35 -36 -160 -50 -273 -5 -47 -15 -123 -22 -170 -16
-111 -16 -599 0 -710 7 -47 17 -123 22 -170 21 -167 37 -265 48 -285 6 -11 13
-39 16 -62 5 -45 66 -172 128 -268 10 -16 24 -42 30 -57 6 -16 15 -28 20 -28
5 0 9 -4 9 -10 0 -12 40 -71 88 -130 46 -56 217 -228 257 -258 98 -73 122 -89
135 -95 8 -4 29 -16 45 -27 92 -60 284 -143 373 -161 23 -5 51 -13 62 -19 12
-6 53 -15 93 -20 40 -5 92 -14 117 -19 25 -6 104 -10 175 -10 72 0 150 4 175
10 25 5 77 14 117 19 40 5 81 14 93 20 11 6 39 14 62 19 89 18 281 101 373
161 17 11 37 23 45 27 21 10 106 69 143 101 42 35 216 209 245 245 65 81 151
219 200 322 13 28 30 62 38 77 8 14 14 33 14 41 0 8 7 20 15 27 8 7 15 18 15
25 0 7 16 47 35 88 19 41 35 82 35 91 0 9 4 16 9 16 5 0 13 15 16 33 4 17 14
41 21 52 8 11 14 28 14 38 0 10 6 31 14 45 7 15 24 61 36 102 12 41 28 89 36
107 8 17 14 44 14 60 1 15 7 39 15 53 8 14 14 38 15 54 0 16 6 52 14 80 30
107 59 327 77 587 19 277 -21 946 -73 1219 -5 30 -14 78 -18 107 -4 28 -13 66
-18 85 -6 18 -16 56 -22 83 -25 110 -38 161 -49 188 -6 16 -11 41 -11 56 0 15
-7 36 -15 47 -8 10 -15 33 -15 49 0 17 -7 41 -15 55 -8 14 -14 34 -15 45 0 11
-7 33 -15 49 -8 15 -15 35 -15 43 0 15 -29 87 -55 136 -8 16 -15 35 -15 44 0
8 -6 27 -13 41 -8 15 -21 43 -30 62 -8 19 -30 67 -47 105 -18 39 -36 79 -41
90 -5 11 -25 47 -44 80 -20 33 -42 74 -51 90 -8 17 -23 44 -34 60 -11 17 -23
37 -27 45 -4 8 -23 38 -42 65 -19 28 -48 70 -65 95 -145 218 -437 542 -620
688 -39 32 -75 62 -81 68 -10 11 -207 160 -236 179 -9 6 -42 28 -75 50 -64 43
-88 58 -119 75 -11 6 -38 21 -60 34 -39 24 -298 154 -362 182 -18 8 -47 21
-65 29 -69 30 -218 85 -232 85 -7 0 -27 7 -42 15 -16 8 -40 15 -54 15 -14 1
-36 7 -50 15 -14 8 -38 14 -53 15 -15 0 -40 6 -55 14 -15 7 -51 16 -81 19 -29
4 -59 11 -66 17 -7 6 -44 13 -81 17 -38 3 -77 10 -86 14 -9 5 -68 14 -130 19
-62 6 -138 15 -168 20 -68 11 -535 10 -610 -1z"/>
<path d="M9826 12553 c7 -16 14 -33 14 -39 0 -6 7 -17 15 -24 21 -18 22 -227
0 -256 -8 -10 -15 -26 -15 -34 0 -8 -9 -33 -20 -55 -11 -22 -19 -46 -20 -52 0
-7 -4 -13 -9 -13 -5 0 -14 -13 -21 -29 -20 -50 -74 -128 -111 -160 -80 -71
-261 -194 -346 -236 -51 -25 -93 -50 -93 -55 0 -4 -13 -11 -29 -15 -37 -8 -87
-55 -132 -125 -21 -32 -69 -80 -80 -80 -5 0 -11 12 -14 28 -17 79 -43 136 -82
180 -27 30 -43 42 -44 32 -3 -21 -6 -50 -8 -82 -1 -34 -62 -96 -121 -124 -76
-36 -120 -54 -135 -54 -8 0 -32 -9 -52 -20 -21 -11 -44 -20 -51 -20 -23 0
-125 -38 -190 -70 -122 -62 -193 -150 -224 -277 -14 -62 -41 -52 -52 17 -3 19
-8 52 -11 73 -6 39 -21 49 -32 20 -8 -23 -46 -77 -55 -81 -5 -2 -8 -9 -8 -15
-1 -7 -9 -30 -20 -52 -11 -22 -19 -48 -20 -59 0 -10 -8 -49 -17 -87 -15 -65
-15 -72 0 -105 9 -19 17 -44 17 -55 0 -31 45 -111 84 -148 20 -19 36 -41 36
-48 0 -24 -48 -13 -93 21 -25 19 -48 32 -51 29 -10 -11 -6 -57 7 -83 8 -14 17
-41 20 -59 7 -33 55 -106 111 -169 28 -31 103 -72 132 -72 25 0 25 -20 0 -45
-18 -18 -36 -25 -65 -25 -51 0 -58 -12 -22 -42 30 -26 51 -35 146 -63 33 -9
79 -24 102 -32 85 -29 226 -9 321 47 19 12 37 18 40 15 4 -3 9 -32 13 -63 11
-88 30 -127 102 -201 60 -61 74 -70 139 -90 54 -15 100 -21 175 -21 111 0 123
5 168 75 52 81 56 95 53 210 -3 110 -3 110 30 160 23 35 29 51 20 53 -19 4
-88 -26 -88 -38 0 -6 -10 -10 -22 -10 -13 0 -36 -7 -52 -15 -15 -8 -37 -15
-47 -15 -10 0 -30 -15 -45 -34 -33 -41 -55 -38 -86 13 -27 44 -58 110 -58 123
0 5 -12 35 -26 66 -26 56 -41 100 -65 192 -6 25 -20 61 -30 81 -11 20 -26 49
-34 65 -7 15 -12 31 -9 36 8 13 150 9 181 -6 15 -7 43 -21 61 -30 19 -9 41
-16 51 -16 9 0 26 -7 37 -15 32 -24 107 -18 177 15 42 20 65 26 72 19 15 -15
7 -197 -12 -246 -15 -42 -13 -73 6 -73 6 0 28 17 50 38 94 90 180 162 193 162
18 0 51 35 72 78 12 23 16 52 14 92 -3 62 -4 59 67 137 37 40 90 166 102 240
3 18 11 38 19 44 8 6 14 22 14 34 0 12 7 28 15 35 8 7 15 20 15 29 0 10 7 26
15 37 8 10 15 30 15 42 0 13 6 38 14 55 8 18 19 59 25 92 5 33 14 78 20 100
14 55 31 140 40 200 4 28 13 61 20 74 11 19 12 65 8 210 -6 177 -21 282 -46
329 -6 11 -11 44 -11 72 0 37 -6 59 -20 77 -11 14 -20 31 -20 38 0 7 -7 18
-15 25 -8 7 -15 22 -15 34 0 12 -21 41 -48 69 -55 53 -78 62 -56 20z"/>
<path d="M11406 6038 c-9 -12 -16 -27 -16 -32 0 -11 -67 -93 -100 -123 -27
-25 -78 -30 -112 -12 -62 33 -180 49 -366 49 -250 0 -334 -19 -516 -117 -43
-24 -161 -130 -207 -186 -26 -32 -65 -95 -87 -140 -75 -152 -73 -133 -70 -937
l3 -715 140 0 140 0 5 372 c4 286 8 375 18 385 9 9 69 15 210 19 207 7 260 17
302 59 19 19 20 31 18 128 l-3 107 -265 1 -264 1 -9 29 c-13 44 0 304 18 355
60 170 193 287 374 330 98 24 277 25 369 3 180 -43 317 -159 378 -319 18 -47
19 -95 24 -760 l5 -710 134 -3 c93 -2 138 1 148 9 12 11 14 113 10 738 -3 712
-4 727 -25 789 -34 97 -82 189 -147 278 -15 20 -13 24 35 75 98 104 165 236
158 311 l-3 33 -142 3 c-137 2 -142 2 -157 -20z"/>
<path d="M6900 5988 c-45 -78 -72 -112 -115 -138 -32 -20 -37 -20 -62 -6 -40
21 -89 41 -158 61 -76 23 -324 32 -445 16 -110 -14 -248 -38 -259 -46 -5 -3
-29 -10 -53 -15 -88 -19 -283 -84 -305 -102 -13 -11 -13 -10 34 -133 44 -114
55 -136 69 -142 6 -2 72 16 145 40 257 85 372 107 560 107 225 0 385 -49 493
-152 80 -76 86 -99 86 -324 0 -206 -1 -210 -48 -185 -76 41 -193 81 -372 127
-80 21 -386 31 -451 16 -115 -28 -136 -34 -166 -47 -17 -8 -34 -15 -37 -15
-20 0 -129 -80 -182 -134 -71 -70 -114 -142 -145 -241 -20 -62 -22 -90 -21
-240 1 -185 16 -270 66 -372 63 -129 183 -211 364 -249 85 -18 212 -29 246
-20 l26 6 0 133 c0 147 -4 157 -59 157 -60 0 -201 31 -236 51 -81 48 -110 128
-110 304 0 112 2 124 28 178 47 95 106 141 232 181 179 57 456 7 740 -133 139
-68 125 -16 125 -451 0 -279 3 -379 12 -388 14 -14 255 -17 276 -4 10 7 12
163 10 803 -3 736 -4 797 -21 834 -29 65 -48 97 -84 142 -18 23 -33 46 -33 51
0 5 22 34 50 63 27 30 65 86 85 125 32 63 36 79 33 135 l-3 64 -140 3 -140 2
-35 -62z"/>
<path d="M7647 5884 c-4 -4 -7 -388 -7 -853 1 -940 -3 -890 68 -1000 102 -157
275 -241 496 -241 61 0 129 5 151 11 22 5 56 14 75 19 19 5 64 23 99 41 l63
32 62 -32 c176 -90 400 -96 561 -13 110 56 205 167 244 285 21 61 21 77 19
907 l-3 845 -138 3 -137 3 -10 -26 c-6 -17 -10 -325 -10 -826 0 -875 3 -826
-58 -891 -62 -67 -227 -78 -318 -23 -89 55 -88 51 -94 500 l-5 390 -139 3
c-105 2 -142 -1 -148 -10 -5 -7 -8 -202 -7 -432 l2 -419 -25 -18 c-66 -48
-204 -64 -297 -33 -57 18 -114 63 -139 107 -16 29 -17 99 -22 852 l-5 820
-136 3 c-74 1 -138 -1 -142 -4z"/>
<path d="M12225 4281 c-54 -24 -103 -75 -127 -130 -66 -153 53 -327 222 -326
169 1 280 179 210 337 -50 114 -192 169 -305 119z"/>
<path d="M4993 3244 c-23 -10 -14 -47 20 -82 l32 -33 5 -297 5 -297 30 0 30 0
1 320 1 320 44 5 c41 5 44 7 44 35 l0 30 -100 2 c-55 1 -106 -1 -112 -3z"/>
<path d="M6797 3193 c-12 -11 -8 -98 5 -111 8 -8 50 -12 124 -12 117 0 140 8
132 47 -3 16 -16 18 -96 21 l-93 3 -11 29 c-7 21 -17 30 -32 30 -13 0 -26 -3
-29 -7z"/>
<path d="M11088 3193 c-46 -5 -60 -22 -56 -70 4 -45 28 -55 61 -25 15 13 48
23 101 30 78 10 99 22 93 52 -2 12 -19 15 -82 16 -44 1 -97 -1 -117 -3z"/>
<path d="M7955 3182 c-11 -2 -25 -12 -31 -21 -10 -13 -37 -17 -140 -21 -102
-4 -129 -8 -137 -21 -6 -9 -7 -24 -4 -33 6 -14 28 -16 169 -16 174 0 211 8
216 47 7 45 -27 75 -73 65z"/>
<path d="M11400 3125 c-6 -8 -10 -22 -8 -32 3 -16 19 -18 168 -21 187 -3 210
0 210 28 0 33 -33 40 -198 40 -127 0 -162 -3 -172 -15z"/>
<path d="M11820 3121 c-5 -11 -7 -27 -4 -35 5 -14 31 -16 174 -16 93 0 175 3
184 6 22 8 20 41 -3 54 -11 6 -89 10 -180 10 -148 0 -161 -1 -171 -19z"/>
<path d="M4862 3035 c-27 -23 -39 -25 -123 -26 -141 0 -213 -34 -177 -82 12
-15 18 -15 73 -2 79 19 116 19 166 -1 46 -19 62 -48 52 -95 -4 -23 -10 -28
-22 -23 -65 27 -183 26 -233 -4 -31 -18 -68 -88 -68 -128 1 -50 34 -109 73
-127 40 -19 83 -22 92 -6 11 17 -4 59 -21 59 -22 0 -74 55 -74 79 0 11 11 33
24 48 22 25 30 28 84 26 32 -1 80 -11 105 -22 l46 -20 3 -88 c3 -86 3 -88 28
-88 l25 0 3 198 c1 109 -2 205 -7 214 -6 12 -2 26 15 49 45 59 -5 89 -64 39z"/>
<path d="M6050 3053 c-8 -3 -21 -14 -28 -25 -11 -15 -27 -18 -110 -18 -71 0
-110 -5 -147 -19 -57 -22 -62 -30 -38 -60 18 -21 19 -21 76 -6 70 18 116 19
154 3 46 -20 63 -39 63 -72 0 -44 -13 -60 -36 -48 -29 14 -118 23 -163 16 -30
-5 -53 -18 -81 -46 -38 -39 -40 -43 -40 -104 0 -59 2 -66 35 -98 34 -34 92
-55 114 -41 6 3 11 17 11 31 0 18 -8 27 -27 35 -65 24 -82 80 -42 129 19 22
28 25 85 23 35 -2 81 -11 102 -21 l37 -17 5 -90 5 -90 30 0 30 0 3 175 c2 103
-2 193 -8 219 -10 39 -9 46 10 66 37 39 10 78 -40 58z"/>
<path d="M7942 3028 c-19 -20 -30 -22 -106 -19 -101 3 -150 -17 -196 -81 l-30
-42 2 -175 3 -176 25 0 c24 0 25 3 30 77 3 42 11 83 18 90 6 6 33 15 60 18 44
5 47 7 47 35 0 29 -1 30 -60 35 -69 6 -75 16 -49 78 29 66 115 91 196 57 64
-26 72 -50 78 -230 l5 -160 25 0 25 0 3 173 c2 142 0 177 -13 195 -19 28 -19
52 1 87 10 15 14 35 11 44 -9 23 -49 20 -75 -6z"/>
<path d="M11678 3028 c-13 -20 -22 -21 -106 -19 -82 2 -95 0 -130 -23 -22 -14
-50 -40 -63 -58 -23 -32 -24 -40 -24 -213 l0 -180 30 0 30 0 3 70 c4 110 6
115 51 115 55 0 71 8 71 36 0 25 -14 31 -80 36 -31 3 -35 6 -38 35 -4 41 11
69 51 93 57 35 145 22 189 -27 15 -16 18 -45 20 -189 l3 -169 30 0 30 0 3 174
c2 142 0 178 -13 197 -19 30 -19 45 2 82 9 16 14 36 10 45 -9 24 -52 21 -69
-5z"/>
<path d="M13427 3008 c-16 -38 -33 -54 -62 -60 -13 -2 -21 -12 -23 -30 -3 -22
4 -30 40 -50 l43 -23 3 -75 c4 -90 -13 -129 -64 -154 -45 -21 -76 -20 -122 3
-35 18 -51 39 -66 85 -6 19 8 81 40 171 8 23 14 49 14 59 0 21 -53 76 -74 76
-20 0 -30 -35 -15 -61 8 -17 8 -36 -1 -81 -7 -32 -17 -61 -21 -64 -5 -3 -9
-38 -9 -77 1 -62 5 -78 28 -112 74 -109 248 -113 328 -8 26 35 29 46 32 140 3
79 1 109 -12 133 -14 30 -14 37 0 81 19 58 14 79 -21 79 -19 0 -28 -8 -38 -32z"/>
<path d="M5247 3013 c-4 -3 -7 -111 -7 -240 0 -257 1 -261 58 -227 28 16 32
16 71 1 23 -10 63 -17 90 -17 40 0 57 6 93 33 l43 33 0 210 0 209 -24 3 c-13
2 -28 -2 -32 -10 -5 -7 -9 -95 -9 -196 l0 -182 -35 -17 c-33 -16 -38 -16 -107
8 l-73 24 -6 185 c-3 102 -6 186 -7 188 -4 5 -49 2 -55 -5z"/>
<path d="M6642 3008 c-9 -9 -12 -61 -12 -186 0 -194 7 -224 64 -265 37 -26
124 -30 198 -7 43 13 49 12 67 -4 11 -10 28 -16 38 -14 17 3 18 19 18 238 l0
235 -30 0 -30 0 -3 -169 c-1 -98 -7 -175 -13 -182 -13 -15 -124 -54 -155 -54
-13 0 -36 11 -51 24 l-28 24 -5 184 c-5 174 -6 183 -25 186 -11 1 -26 -3 -33
-10z"/>
<path d="M9842 3008 c-16 -16 -17 -376 -1 -410 5 -13 25 -34 44 -47 29 -19 42
-22 82 -17 59 8 84 8 150 0 43 -5 56 -2 82 17 55 40 61 68 61 267 0 192 -5
211 -50 197 -19 -6 -20 -14 -20 -189 0 -178 -1 -183 -23 -204 -30 -28 -48 -28
-75 1 -17 18 -22 37 -24 107 l-3 85 -30 0 -30 0 -5 -99 c-6 -114 -18 -133 -68
-106 l-27 16 -5 194 c-5 186 -6 195 -25 198 -11 1 -26 -3 -33 -10z"/>
<path d="M6260 2994 c-58 -25 -80 -59 -80 -121 0 -77 32 -105 154 -133 50 -12
99 -23 108 -26 20 -6 32 -37 23 -63 -8 -26 -87 -55 -133 -47 -124 20 -131 20
-141 -5 -11 -29 -8 -32 53 -53 99 -32 213 -13 269 45 22 24 27 38 27 80 0 44
-4 55 -31 80 -31 29 -64 41 -173 63 -68 14 -100 43 -87 78 15 42 106 58 200
36 55 -12 81 -2 81 32 0 43 -193 67 -270 34z"/>
<path d="M7175 2991 l-50 -18 0 -219 0 -219 30 0 30 0 3 188 2 188 35 15 c44
18 103 18 147 0 60 -26 63 -33 68 -220 5 -171 5 -171 29 -174 13 -2 28 2 32
10 5 7 9 86 9 176 0 173 -5 195 -52 239 -58 54 -183 69 -283 34z"/>
<path d="M8175 2990 l-50 -17 0 -219 0 -219 30 0 30 0 3 181 c2 165 4 183 22
199 43 39 187 26 213 -19 7 -13 14 -85 17 -191 l5 -170 30 0 30 0 3 184 2 185
-32 34 c-53 55 -97 72 -180 71 -40 -1 -95 -9 -123 -19z"/>
<path d="M8617 3003 c-4 -3 -7 -86 -7 -182 l0 -176 31 -38 c43 -52 96 -77 164
-77 106 0 195 69 195 151 1 18 7 45 15 59 19 32 19 64 0 80 -10 8 -15 37 -17
98 -3 86 -3 87 -30 90 -32 4 -37 -8 -40 -113 l-3 -70 -60 -5 c-59 -5 -60 -6
-60 -35 0 -29 1 -30 60 -35 l60 -5 0 -50 c0 -47 -2 -50 -40 -72 -46 -26 -91
-29 -139 -9 -60 25 -66 44 -66 206 0 170 -4 190 -34 190 -13 0 -26 -3 -29 -7z"/>
<path d="M9126 2991 c-57 -20 -64 -30 -39 -59 16 -19 22 -21 58 -11 22 6 61
13 86 16 41 4 51 1 80 -25 l34 -30 5 -174 5 -173 25 0 25 0 3 184 c2 177 2
185 -20 218 -47 71 -153 93 -262 54z"/>
<path d="M9512 2773 l3 -238 24 -3 c13 -2 28 2 32 10 10 15 12 428 3 452 -4
10 -18 16 -35 16 l-29 0 2 -237z"/>
<path d="M9672 2773 l3 -238 30 0 30 0 0 235 0 235 -33 3 -32 3 2 -238z"/>
<path d="M10364 2997 c-2 -7 -3 -114 -2 -237 l3 -225 25 0 25 0 5 172 c6 194
3 188 89 218 65 22 113 20 139 -8 20 -21 22 -34 24 -202 l3 -180 30 0 30 0 3
193 c3 214 1 223 -64 263 -28 17 -45 20 -97 16 -34 -2 -82 -10 -106 -17 -39
-12 -45 -11 -56 3 -14 20 -44 22 -51 4z"/>
<path d="M10847 3003 c-4 -3 -7 -40 -7 -81 0 -52 5 -82 17 -103 17 -28 17 -31
0 -60 -27 -49 -22 -104 14 -150 80 -101 251 -106 332 -9 l27 32 -2 187 -3 186
-27 3 c-16 2 -29 2 -30 0 -1 -2 -4 -84 -7 -183 l-6 -179 -40 -23 c-46 -26 -88
-29 -137 -8 -35 14 -68 52 -68 78 0 7 14 26 30 42 17 16 30 38 30 49 0 12 -13
34 -30 49 -26 25 -30 36 -30 84 0 30 -5 63 -10 74 -10 19 -40 26 -53 12z"/>
<path d="M11917 2992 c-50 -23 -77 -65 -77 -124 0 -71 37 -101 160 -129 121
-28 130 -33 130 -70 0 -26 -6 -32 -46 -49 -54 -23 -83 -25 -144 -6 -93 28
-128 -29 -40 -65 88 -35 214 -18 272 38 24 23 28 35 28 84 0 54 -2 59 -37 86
-27 21 -64 35 -123 48 -106 22 -130 36 -130 74 0 25 6 32 45 46 43 17 89 17
180 0 35 -6 52 2 57 29 8 48 -191 75 -275 38z"/>
<path d="M12337 2992 c-50 -23 -77 -65 -77 -124 0 -72 36 -101 165 -130 55
-13 108 -31 117 -40 26 -26 11 -57 -39 -79 -53 -22 -71 -23 -138 -5 -62 16
-98 6 -93 -26 7 -50 165 -74 258 -39 70 27 89 53 90 122 0 81 -27 103 -159
134 -56 13 -108 29 -116 35 -8 7 -15 25 -15 40 0 24 7 31 45 45 43 17 89 17
180 0 35 -6 52 2 57 29 8 48 -191 75 -275 38z"/>
<path d="M12730 2992 c-31 -12 -46 -24 -48 -38 -5 -37 18 -45 82 -29 76 20
105 19 144 -5 l32 -20 0 -172 c0 -95 4 -179 9 -186 4 -8 19 -12 32 -10 l24 3
3 191 c2 181 1 192 -19 218 -50 64 -163 84 -259 48z"/>
</g>
</svg>
