<svg width="414" height="271" viewBox="0 0 414 271" fill="none" xmlns="http://www.w3.org/2000/svg">
<g filter="url(#filter0_d_3_3654)">
<path d="M238.086 149.582H201.559C201.559 142.133 202.068 135.572 203.086 129.901C204.189 124.145 206.056 118.981 208.686 114.41C211.316 109.839 214.88 105.607 219.377 101.713C223.365 98.4118 226.801 95.2374 229.686 92.1901C232.571 89.1428 234.777 86.0531 236.304 82.9211C237.831 79.7891 238.595 76.4455 238.595 72.8902C238.595 68.4885 237.959 64.891 236.686 62.0976C235.498 59.3042 233.674 57.2303 231.213 55.8759C228.837 54.4369 225.825 53.7174 222.177 53.7174C219.207 53.7174 216.407 54.4369 213.777 55.8759C211.232 57.3149 209.153 59.5581 207.541 62.6055C205.929 65.5682 205.038 69.5043 204.868 74.4139H161.723C161.978 61.8013 164.778 51.5588 170.123 43.6865C175.553 35.7296 182.765 29.9312 191.759 26.2913C200.838 22.5667 210.977 20.7045 222.177 20.7045C234.565 20.7045 245.213 22.6091 254.122 26.4182C263.031 30.2274 269.861 35.8989 274.613 43.4326C279.364 50.8816 281.74 60.066 281.74 70.9857C281.74 78.2654 280.34 84.6141 277.54 90.0316C274.825 95.3644 271.134 100.359 266.467 105.014C261.885 109.585 256.752 114.495 251.067 119.743C246.146 124.06 242.795 128.462 241.013 132.948C239.231 137.35 238.255 142.895 238.086 149.582ZM196.341 188.181C196.341 182.087 198.547 177.008 202.959 172.945C207.371 168.797 213.098 166.723 220.141 166.723C227.183 166.723 232.91 168.797 237.322 172.945C241.734 177.008 243.94 182.087 243.94 188.181C243.94 194.276 241.734 199.397 237.322 203.545C232.91 207.608 227.183 209.64 220.141 209.64C213.098 209.64 207.371 207.608 202.959 203.545C198.547 199.397 196.341 194.276 196.341 188.181Z" fill="#43AF6A"/>
</g>
<g filter="url(#filter1_d_3_3654)">
<path d="M316.073 187.183L295.557 176.288C297.789 172.104 300.041 168.572 302.313 165.69C304.657 162.786 307.253 160.442 310.1 158.659C312.947 156.877 316.217 155.562 319.91 154.717C323.139 154.052 326.021 153.294 328.554 152.443C331.088 151.592 333.253 150.514 335.049 149.211C336.845 147.907 338.276 146.257 339.342 144.26C340.661 141.788 341.382 139.577 341.504 137.629C341.674 135.705 341.271 133.996 340.295 132.502C339.391 130.985 337.915 129.682 335.866 128.594C334.198 127.708 332.41 127.277 330.501 127.301C328.64 127.35 326.8 127.99 324.982 129.221C323.188 130.404 321.508 132.349 319.942 135.056L295.709 122.187C299.631 115.178 304.273 110.261 309.635 107.433C315.069 104.584 320.858 103.478 327 104.117C333.216 104.733 339.469 106.711 345.759 110.052C352.717 113.747 358.127 117.992 361.99 122.789C365.852 127.586 367.989 132.809 368.4 138.458C368.836 144.059 367.418 149.926 364.146 156.059C361.964 160.148 359.275 163.296 356.079 165.504C352.956 167.69 349.386 169.394 345.37 170.617C341.427 171.818 337.072 173.044 332.306 174.296C328.249 175.253 325.047 176.726 322.702 178.714C320.382 180.655 318.172 183.478 316.073 187.183ZM281.058 196.412C282.885 192.989 285.646 190.794 289.342 189.828C293.063 188.815 296.901 189.358 300.857 191.459C304.812 193.559 307.407 196.432 308.643 200.078C309.903 203.676 309.62 207.187 307.794 210.61C305.967 214.033 303.193 216.252 299.472 217.265C295.776 218.231 291.951 217.664 287.995 215.564C284.04 213.463 281.432 210.614 280.171 207.016C278.936 203.37 279.232 199.835 281.058 196.412Z" fill="#3ED69F"/>
</g>
<g filter="url(#filter2_d_3_3654)">
<path d="M116.491 187.183L137.007 176.288C134.775 172.104 132.523 168.572 130.252 165.69C127.907 162.786 125.311 160.442 122.464 158.659C119.617 156.877 116.347 155.562 112.654 154.717C109.425 154.052 106.544 153.294 104.01 152.443C101.477 151.592 99.3117 150.514 97.5153 149.211C95.7189 147.907 94.288 146.257 93.2226 144.26C91.9034 141.788 91.1827 139.577 91.0605 137.629C90.8905 135.705 91.2936 133.996 92.2698 132.502C93.1729 130.985 94.6491 129.682 96.6983 128.594C98.3663 127.708 100.155 127.277 102.063 127.301C103.924 127.35 105.764 127.99 107.583 129.221C109.376 130.404 111.056 132.349 112.623 135.056L136.856 122.187C132.933 115.178 128.291 110.261 122.929 107.433C117.495 104.584 111.706 103.478 105.564 104.117C99.3486 104.733 93.0956 106.711 86.805 110.052C79.8472 113.747 74.4371 117.992 70.5747 122.789C66.7123 127.586 64.5756 132.809 64.1646 138.458C63.7282 144.059 65.1461 149.926 68.4186 156.059C70.6002 160.148 73.289 163.296 76.4852 165.504C79.6084 167.69 83.1781 169.394 87.1944 170.617C91.1377 171.818 95.4922 173.044 100.258 174.296C104.316 175.253 107.517 176.726 109.863 178.714C112.182 180.655 114.392 183.478 116.491 187.183ZM151.506 196.412C149.679 192.989 146.918 190.794 143.223 189.828C139.501 188.815 135.663 189.358 131.708 191.459C127.752 193.559 125.157 196.432 123.922 200.078C122.661 203.676 122.944 207.187 124.771 210.61C126.597 214.033 129.371 216.252 133.092 217.265C136.788 218.231 140.614 217.664 144.569 215.564C148.524 213.463 151.132 210.614 152.393 207.016C153.628 203.37 153.332 199.835 151.506 196.412Z" fill="#6E9C83"/>
</g>
<path d="M227.822 150.164L228.707 150.175L228.739 149.291C228.986 142.674 230.015 137.258 231.794 133.01L231.796 133.004C233.56 128.711 236.857 124.459 241.757 120.262L241.766 120.255L241.774 120.247C247.528 115.06 252.727 110.203 257.373 105.677C262.155 101.017 265.964 95.9915 268.791 90.599C271.734 85.0649 273.233 78.5863 273.321 71.1911C273.451 60.1414 271.158 50.7511 266.385 43.069C261.618 35.3099 254.707 29.4421 245.691 25.461C236.689 21.486 225.937 19.4412 213.46 19.2943C202.161 19.1612 191.881 20.9195 182.636 24.5856C173.435 28.184 166.011 34.0092 160.384 42.0488L160.383 42.0505C154.817 50.0433 151.866 60.4381 151.458 73.1663L151.428 74.0916L152.354 74.1025L195.496 74.6105L196.372 74.6208L196.413 73.7453C196.637 68.9193 197.556 65.1476 199.111 62.3701L199.111 62.3702L199.116 62.3608C200.695 59.4595 202.684 57.381 205.066 56.0695C207.578 54.7343 210.235 54.0861 213.048 54.1192C216.582 54.1608 219.41 54.8912 221.59 56.2472L221.606 56.2571L221.622 56.2664C223.875 57.5413 225.545 59.4722 226.629 62.1077L226.633 62.1183L226.638 62.1289C227.808 64.7785 228.393 68.2424 228.342 72.5662C228.302 75.9863 227.53 79.1848 226.029 82.1729C224.514 85.1894 222.33 88.1791 219.461 91.1391C216.571 94.1207 213.126 97.2297 209.121 100.466L209.114 100.472L209.106 100.479C204.495 104.376 200.812 108.643 198.07 113.28C195.33 117.916 193.369 123.154 192.18 128.984L192.18 128.984L192.178 128.995C191.08 134.719 190.49 141.329 190.401 148.816L190.391 149.723L191.298 149.734L227.822 150.164ZM191.822 171.534C187.172 175.717 184.802 181.01 184.727 187.352C184.652 193.695 186.897 199.082 191.441 203.457L191.448 203.463C196.005 207.761 201.94 209.922 209.168 210.007C216.395 210.092 222.379 208.071 227.038 203.882L227.044 203.876C231.691 199.61 234.062 194.276 234.137 187.934C234.212 181.592 231.968 176.244 227.419 171.953C222.864 167.569 216.928 165.364 209.697 165.279C202.466 165.194 196.48 167.259 191.822 171.534Z" stroke="#006224" stroke-width="1.81447"/>
<path d="M310.133 184.449L310.627 184.719L310.91 184.233C313.032 180.589 315.233 177.854 317.505 175.999L317.508 175.996C319.786 174.111 322.911 172.706 326.921 171.811L326.928 171.809L326.936 171.807C331.722 170.61 336.098 169.433 340.063 168.276C344.146 167.085 347.791 165.399 350.995 163.214C354.306 160.983 357.09 157.791 359.355 153.664C362.74 147.497 364.266 141.538 363.887 135.8C363.535 130.02 361.412 124.663 357.541 119.738C353.676 114.82 348.249 110.464 341.285 106.66C334.979 103.215 328.678 101.136 322.386 100.438C316.14 99.7143 310.224 100.772 304.655 103.609L304.653 103.61C299.132 106.439 294.359 111.397 290.316 118.424L290.022 118.935L290.539 119.217L314.618 132.371L315.108 132.638L315.393 132.159C316.965 129.515 318.612 127.67 320.317 126.574L320.317 126.574L320.323 126.57C322.079 125.412 323.819 124.837 325.55 124.811C327.362 124.811 329.048 125.239 330.618 126.097C332.59 127.174 333.959 128.428 334.778 129.839L334.784 129.85L334.79 129.86C335.673 131.248 336.032 132.83 335.851 134.634L335.851 134.641L335.85 134.649C335.713 136.486 335.004 138.606 333.679 141.02C332.632 142.929 331.24 144.495 329.501 145.726C327.746 146.968 325.624 147.996 323.125 148.803C320.608 149.616 317.741 150.334 314.522 150.957L314.522 150.957L314.51 150.96C310.752 151.774 307.405 153.072 304.475 154.859C301.547 156.645 298.876 159.002 296.46 161.922L296.456 161.927C294.124 164.815 291.812 168.351 289.519 172.53L289.241 173.036L289.747 173.313L310.133 184.449ZM283.508 185.714C279.643 186.677 276.725 188.943 274.783 192.482C272.84 196.022 272.486 199.718 273.728 203.53L273.73 203.536C275.002 207.309 277.688 210.293 281.722 212.497C285.756 214.7 289.723 215.351 293.595 214.387L293.6 214.386C297.489 213.375 300.419 211.087 302.362 207.547C304.304 204.008 304.646 200.335 303.377 196.568C302.132 192.747 299.459 189.737 295.423 187.533C291.387 185.328 287.406 184.702 283.508 185.714Z" stroke="#006224" stroke-width="1.15453"/>
<path d="M122.431 184.449L121.937 184.719L121.654 184.233C119.533 180.589 117.331 177.854 115.059 175.999L115.056 175.996C112.779 174.111 109.653 172.706 105.643 171.811L105.636 171.809L105.629 171.807C100.843 170.61 96.4666 169.433 92.501 168.276C88.4186 167.085 84.7731 165.399 81.5697 163.214C78.2581 160.983 75.4744 157.791 73.2091 153.664C69.8243 147.497 68.2987 141.538 68.6772 135.8C69.0293 130.02 71.1526 124.663 75.0234 119.738C78.8884 114.82 84.315 110.464 91.2788 106.66C97.5858 103.215 103.886 101.136 110.178 100.438C116.425 99.7143 122.34 100.772 127.91 103.609L127.911 103.61C133.432 106.439 138.205 111.397 142.248 118.424L142.542 118.935L142.025 119.217L117.946 132.371L117.456 132.638L117.171 132.159C115.599 129.515 113.952 127.67 112.247 126.574L112.247 126.574L112.241 126.57C110.485 125.412 108.745 124.837 107.014 124.811C105.203 124.811 103.517 125.239 101.946 126.097C99.9744 127.174 98.6049 128.428 97.7867 129.839L97.7807 129.85L97.7743 129.86C96.891 131.248 96.5319 132.83 96.7128 134.634L96.7136 134.641L96.7141 134.649C96.8512 136.486 97.5604 138.606 98.885 141.02C99.9327 142.929 101.325 144.495 103.063 145.726C104.818 146.968 106.941 147.996 109.439 148.803C111.956 149.616 114.823 150.334 118.042 150.957L118.042 150.957L118.054 150.96C121.812 151.774 125.159 153.072 128.089 154.859C131.018 156.645 133.689 159.002 136.104 161.922L136.108 161.927C138.44 164.815 140.752 168.351 143.046 172.53L143.323 173.036L142.817 173.313L122.431 184.449ZM149.056 185.714C152.921 186.677 155.839 188.943 157.781 192.482C159.724 196.022 160.078 199.718 158.837 203.53L158.835 203.536C157.563 207.309 154.877 210.293 150.842 212.497C146.808 214.7 142.841 215.351 138.97 214.387L138.964 214.386C135.076 213.375 132.145 211.087 130.203 207.547C128.26 204.008 127.918 200.335 129.187 196.568C130.432 192.747 133.105 189.737 137.141 187.533C141.177 185.328 145.159 184.702 149.056 185.714Z" stroke="#006224" stroke-width="1.15453"/>
<path d="M413 72.7096C403.19 78.6811 378.783 85.2497 359.63 63.7525C335.688 36.881 325.712 16.9762 291.295 12" stroke="#006224" stroke-linecap="round"/>
<path d="M1 210.551C14.301 204.579 46.2901 197.911 67.8378 219.01C94.7724 245.384 110.734 260.81 143.654 250.858" stroke="#006224" stroke-linecap="round"/>
<path d="M90.2821 29.4167C90.2821 36.0102 84.9242 41.3572 78.3123 41.3572C71.7005 41.3572 66.3426 36.0102 66.3426 29.4167C66.3426 22.8232 71.7005 17.4762 78.3123 17.4762C84.9242 17.4762 90.2821 22.8232 90.2821 29.4167Z" stroke="#006224"/>
<path d="M319.725 233.441C319.725 235.087 318.387 236.424 316.734 236.424C315.08 236.424 313.742 235.087 313.742 233.441C313.742 231.794 315.08 230.458 316.734 230.458C318.387 230.458 319.725 231.794 319.725 233.441Z" stroke="#006224"/>
<defs>
<filter id="filter0_d_3_3654" x="121.723" y="0.234768" width="200.017" height="268.935" filterUnits="userSpaceOnUse" color-interpolation-filters="sRGB">
<feFlood flood-opacity="0" result="BackgroundImageFix"/>
<feColorMatrix in="SourceAlpha" type="matrix" values="0 0 0 0 0 0 0 0 0 0 0 0 0 0 0 0 0 0 127 0" result="hardAlpha"/>
<feOffset dy="19.5303"/>
<feGaussianBlur stdDeviation="20"/>
<feComposite in2="hardAlpha" operator="out"/>
<feColorMatrix type="matrix" values="0 0 0 0 0.262745 0 0 0 0 0.686275 0 0 0 0 0.415686 0 0 0 1 0"/>
<feBlend mode="normal" in2="BackgroundImageFix" result="effect1_dropShadow_3_3654"/>
<feBlend mode="normal" in="SourceGraphic" in2="effect1_dropShadow_3_3654" result="shape"/>
</filter>
<filter id="filter1_d_3_3654" x="239.424" y="76.3683" width="169.053" height="193.78" filterUnits="userSpaceOnUse" color-interpolation-filters="sRGB">
<feFlood flood-opacity="0" result="BackgroundImageFix"/>
<feColorMatrix in="SourceAlpha" type="matrix" values="0 0 0 0 0 0 0 0 0 0 0 0 0 0 0 0 0 0 127 0" result="hardAlpha"/>
<feOffset dy="12.4269"/>
<feGaussianBlur stdDeviation="20"/>
<feComposite in2="hardAlpha" operator="out"/>
<feColorMatrix type="matrix" values="0 0 0 0 0.243137 0 0 0 0 0.839216 0 0 0 0 0.623529 0 0 0 1 0"/>
<feBlend mode="normal" in2="BackgroundImageFix" result="effect1_dropShadow_3_3654"/>
<feBlend mode="normal" in="SourceGraphic" in2="effect1_dropShadow_3_3654" result="shape"/>
</filter>
<filter id="filter2_d_3_3654" x="24.0875" y="76.3683" width="169.053" height="193.78" filterUnits="userSpaceOnUse" color-interpolation-filters="sRGB">
<feFlood flood-opacity="0" result="BackgroundImageFix"/>
<feColorMatrix in="SourceAlpha" type="matrix" values="0 0 0 0 0 0 0 0 0 0 0 0 0 0 0 0 0 0 127 0" result="hardAlpha"/>
<feOffset dy="12.4269"/>
<feGaussianBlur stdDeviation="20"/>
<feComposite in2="hardAlpha" operator="out"/>
<feColorMatrix type="matrix" values="0 0 0 0 0.431373 0 0 0 0 0.611765 0 0 0 0 0.513726 0 0 0 1 0"/>
<feBlend mode="normal" in2="BackgroundImageFix" result="effect1_dropShadow_3_3654"/>
<feBlend mode="normal" in="SourceGraphic" in2="effect1_dropShadow_3_3654" result="shape"/>
</filter>
</defs>
</svg>
