<svg width="183" height="280" viewBox="0 0 183 280" fill="none" xmlns="http://www.w3.org/2000/svg">
<path d="M176.957 240.623C170.04 228.298 162.225 216.776 153.781 205.769C145.002 194.325 135.572 183.583 124.86 174.263C117.313 167.696 109.335 161.915 100.209 158.279C99.2622 157.902 98.9369 157.179 98.61 156.266C94.3946 144.495 90.1344 132.744 85.9448 120.962C85.4864 119.673 84.8614 118.872 83.6909 118.307C73.1308 113.214 62.5978 108.053 52.0537 102.919C49.8761 101.859 49.7699 101.104 51.6003 99.4205C60.4727 91.2607 69.3325 83.0844 78.2357 74.9651C79.2152 74.0718 79.6924 73.0946 79.8192 71.7454C80.9535 59.6738 82.1167 47.6054 83.2727 35.5362C83.3112 35.1337 83.3523 34.7308 83.4115 34.3315C83.7337 32.1573 84.3947 31.7919 86.1213 32.9384C90.5382 35.8713 94.9343 38.8418 99.3407 41.7937C104.955 45.5544 110.596 49.2667 116.165 53.1063C117.342 53.9181 118.414 53.5845 119.505 53.352C130.479 51.0138 141.444 48.6255 152.411 46.2486C153.579 45.9955 154.445 46.2325 155.286 47.3757C164.937 60.494 173.229 74.6028 180.708 89.289C190.709 108.928 198.782 129.463 204.292 151.168C209.775 172.763 212.46 194.713 211.141 217.139C209.898 238.277 205.077 258.41 196.578 277.46C195.491 279.896 195.223 279.918 192.981 278.59C186.798 274.931 180.083 272.882 173.312 271.093C153.088 265.752 132.573 263.283 111.776 264.283C99.8971 264.855 88.1848 266.631 77.3098 272.426C76.425 272.898 75.7751 272.576 75.0499 272.254C66.4876 268.455 57.9216 264.664 49.3777 260.815C48.3487 260.352 47.5247 260.284 46.4527 260.776C37.9258 264.693 29.3654 268.522 20.8121 272.37C18.6808 273.329 18.3675 273.131 18.4974 270.717C19.0449 260.543 19.6066 250.369 20.2255 240.2C20.301 238.96 20.064 238.059 19.3209 237.109C13.4686 229.631 7.67221 222.101 1.8433 214.601C0.130973 212.397 0.228631 211.898 2.67058 211.179C11.4238 208.6 20.1699 205.992 28.943 203.497C30.2488 203.126 31.0511 202.456 31.7514 201.241C36.5353 192.938 41.4028 184.693 46.1736 176.382C46.8276 175.242 47.4903 174.863 48.695 174.961C62.053 176.048 75.1152 178.944 88.0139 182.755C108.242 188.732 127.435 197.366 145.016 209.999C156.885 218.528 167.477 228.639 176.492 240.873C176.486 240.514 177.225 241.552 176.957 240.623Z" fill="#090703"/>
<path d="M113.116 139.314C109.239 143.949 105.414 148.442 101.677 153.021C100.602 154.338 100.329 153.884 99.8541 152.551C95.8592 141.323 91.7963 130.125 87.8099 118.894C87.3745 117.667 86.7742 116.9 85.6684 116.366C75.8229 111.614 65.9964 106.815 56.175 102.003C55.461 101.653 54.6381 101.473 54.0371 100.674C60.5051 94.72 66.9622 88.7757 73.4196 82.8318C75.8256 80.6171 78.2084 78.3711 80.6507 76.2055C81.5757 75.3853 82.011 74.4891 82.1333 73.1496C83.2174 61.2752 84.3809 49.4096 85.5315 37.5426C85.5762 37.0811 85.7268 36.6319 85.8804 35.9415C90.1113 38.76 94.2476 41.5068 98.376 44.2677C104.102 48.0972 109.842 51.9032 115.528 55.8032C116.601 56.5393 117.618 56.4831 118.703 56.2512C129.737 53.8925 140.767 51.515 152.069 49.0846C151.505 51.7545 150.99 54.2775 150.437 56.7908C148.338 66.3433 146.26 75.9016 144.086 85.4338C143.756 86.8841 143.962 88.0063 144.594 89.2556C149.819 99.5719 155.002 109.913 160.196 120.248C160.491 120.834 160.773 121.427 161.18 122.263C159.119 122.438 157.203 122.626 155.284 122.759C145.696 123.424 136.107 124.085 126.517 124.712C125.654 124.768 125.04 125.07 124.452 125.779C120.724 130.277 116.956 134.735 113.116 139.314Z" fill="#ECBF32"/>
<path d="M29.3642 205.585C31.3153 205.367 32.3816 204.252 33.3389 202.57C37.9867 194.404 42.7617 186.324 47.4939 178.21C48.2917 178.518 48.4784 179.303 48.8298 179.896C53.4485 187.691 58.0521 195.497 62.6385 203.314C63.1921 204.258 63.8007 204.838 64.8839 205.14C73.3252 207.495 81.7397 209.965 90.1622 212.4C92.129 212.969 92.1358 213.014 90.8754 214.649C85.3519 221.813 79.8401 228.988 74.3081 236.144C73.5479 237.127 73.3429 238.101 73.4434 239.45C73.9689 246.504 74.3273 253.573 74.7417 260.638C74.9186 263.655 75.0905 266.672 75.2817 269.984C71.2132 268.185 67.375 266.493 63.5415 264.789C58.9884 262.765 54.42 260.78 49.9 258.671C48.4952 258.015 47.299 258.007 45.8804 258.664C38.0868 262.274 30.2545 265.783 22.4346 269.325C20.5836 270.163 20.5464 270.157 20.6612 267.955C21.16 258.391 21.6644 248.826 22.2148 239.265C22.2868 238.014 21.9412 237.115 21.2088 236.18C15.3211 228.659 9.47767 221.097 3.40698 213.273C12.163 210.683 20.6935 208.161 29.3642 205.585Z" fill="#ECBF32"/>
<path d="M182.3 98.1427C192.307 119.165 200.048 140.954 204.709 163.996C207.988 180.205 209.549 196.609 208.899 213.207C208.256 229.6 205.454 245.562 200.331 261.008C200.163 261.514 199.968 262.01 199.767 262.501C199.724 262.605 199.6 262.669 199.316 262.939C199.599 260.565 199.867 258.406 200.114 256.243C203.498 226.657 199.575 198.03 190.476 170.142C180.635 139.983 166.09 112.755 147.377 88.1763C146.817 87.4415 146.278 86.7857 146.526 85.6779C149.13 74.0398 151.707 62.3944 154.385 50.3301C165.109 65.4683 174.263 81.3219 182.3 98.1427Z" fill="#F07305"/>
<path d="M120.877 134.048C122.339 132.301 123.816 130.749 125.067 129.003C125.972 127.74 126.502 128.389 127.225 129.084C134.739 136.307 141.755 144.068 148.196 152.443C165.058 174.368 177.449 199.008 185.481 226.286C189.076 238.493 191.563 250.967 192.996 263.694C193.079 264.429 193.085 265.175 193.107 265.917C193.112 266.082 193.037 266.249 193.003 266.4C192.597 266.421 192.567 266.075 192.479 265.868C181.624 240.24 166.714 217.611 149.666 196.586C140.766 185.61 131.1 175.52 120.114 167.03C114.617 162.782 108.819 159.123 102.274 156.218C108.516 148.784 114.655 141.473 120.877 134.048Z" fill="#F1911D"/>
<path d="M188.291 265.883C183.525 259.711 178.68 253.707 173.226 248.309C158.843 234.07 142.289 223.842 124.225 216.415C111.208 211.063 97.8131 207.283 84.0628 204.97C78.1069 203.969 72.1364 203.208 66.1263 202.797C65.2311 202.736 64.5334 202.53 63.984 201.588C59.4494 193.811 54.8632 186.07 50.2971 178.315C50.1383 178.045 50.0255 177.743 49.791 177.242C53.8917 177.479 57.7554 178.104 61.6012 178.778C80.7591 182.14 99.3647 187.666 117.194 196.135C137.108 205.595 155.087 218.167 169.871 235.799C177.322 244.684 183.568 254.495 188.468 265.484C188.482 265.694 188.444 265.77 188.291 265.883Z" fill="#F07305"/>
<path d="M191.145 198.706C193.06 207.873 194.602 216.939 195.477 226.132C196.386 235.678 196.734 245.244 196.207 254.83C196.068 257.356 196.224 259.93 195.41 262.993C192.271 236.285 184.829 211.678 173.483 188.484C162.132 165.282 147.388 145.004 129.142 127.36C130.526 127.191 131.689 126.991 132.858 126.915C142.386 126.29 151.917 125.727 161.441 125.036C162.767 124.94 163.154 125.777 163.666 126.679C171.492 140.462 177.834 155.04 183.077 170.206C186.28 179.473 188.903 188.936 191.145 198.706Z" fill="#F07305"/>
<path d="M164.149 256.946C172.321 261.545 180.035 266.655 187.153 272.813C186.881 273.331 186.548 273.122 186.326 273.037C175.313 268.817 163.939 266.356 152.421 264.53C140.52 262.643 128.565 261.583 116.546 261.892C104.831 262.194 93.2113 263.44 82.0668 267.832C80.524 268.44 79.0135 269.147 77.3457 269.869C76.9696 264.037 76.5986 258.338 76.2356 252.638C75.9784 248.6 75.7632 244.558 75.4633 240.523C75.3627 239.168 75.6897 238.724 77.0237 238.629C83.1098 238.197 89.1892 237.71 95.2955 237.922C119.465 238.762 142.406 244.94 164.149 256.946Z" fill="#F1911D"/>
<path d="M113.586 237.437C101.443 235.499 89.4118 235.436 77.0703 236.385C78.1148 234.412 79.366 233.05 80.4857 231.585C84.7558 225.996 89.0559 220.435 93.2992 214.822C94.0048 213.889 94.6043 213.577 95.7756 213.857C123.015 220.352 147.907 232.367 169.825 251.435C174.904 255.853 179.597 260.723 184.032 265.896C184.499 266.441 185.157 266.9 185.188 268.3C163.453 251.625 139.7 241.441 113.586 237.437Z" fill="#F07305"/>
<path d="M198.394 231.433C197.098 213.437 193.66 196.032 188.486 179.037C182.489 159.338 174.742 140.544 164.473 123.012C161.025 117.126 158.245 110.771 155.162 104.63C155.018 104.344 154.823 104.056 155.284 103.304C180.022 141.835 197.199 183.183 198.825 231.115C198.761 231.462 198.643 231.542 198.394 231.433Z" fill="#E68A1B"/>
<path d="M92.6888 210.894C87.568 209.411 82.5909 207.989 77.4501 206.519C82.2011 205.555 110.356 212.927 124.469 218.836C139.625 225.181 153.754 233.518 166.501 244.904C165.546 245.436 165.222 244.78 164.815 244.464C145.091 229.128 123.367 218.682 99.8674 212.585C97.5357 211.98 95.1781 211.495 92.6888 210.894Z" fill="#E68B1B"/>
<path d="M167.559 246.434C166.954 246.206 166.351 246.039 166.349 245.204C167.02 245.011 167.272 245.632 167.757 246.047C167.789 246.23 167.734 246.303 167.559 246.434Z" fill="#E68B1B"/>
<path d="M168.917 247.296C169.31 247.474 169.601 247.717 169.963 248.053C170.026 248.252 170.016 248.357 169.861 248.465C169.408 248.242 169.101 248.016 168.736 247.684C168.724 247.506 168.769 247.433 168.917 247.296Z" fill="#C57717"/>
<path d="M176.884 240.623C177.37 241.013 177.75 241.516 177.41 242.288C177.169 241.903 176.945 241.546 176.651 241.079C176.648 240.89 176.714 240.812 176.884 240.623Z" fill="white"/>
<path d="M168.025 246.519C168.294 246.575 168.474 246.713 168.708 246.957C168.748 247.159 168.733 247.255 168.588 247.38C168.289 247.286 168.121 247.163 167.908 246.941C167.887 246.761 167.912 246.681 168.025 246.519Z" fill="#E68B1B"/>
<path d="M172.488 250.877C172.693 250.792 172.866 250.905 173.073 251.122C172.891 251.176 172.674 251.126 172.488 250.877Z" fill="#995D12"/>
<path d="M169.951 248.221C170.189 248.275 170.342 248.405 170.539 248.632C170.56 248.804 170.538 248.88 170.419 249.007C170.153 248.928 169.985 248.797 169.766 248.567C169.766 248.411 169.816 248.353 169.951 248.221Z" fill="#C57717"/>
<path d="M154.668 102.977C154.903 103.179 155.084 103.431 154.69 103.419C154.467 103.413 154.285 103.241 154.668 102.977Z" fill="#E68A1B"/>
<path d="M170.871 249.146C171.079 249.192 171.193 249.268 171.365 249.435C171.423 249.527 171.323 249.693 171.253 249.756C171.072 249.734 170.96 249.649 170.788 249.474C170.745 249.314 170.761 249.245 170.871 249.146Z" fill="#C57717"/>
<path d="M171.627 250.088C171.429 250.096 171.337 250.046 171.221 249.893C171.183 249.819 171.277 249.647 171.35 249.587C171.535 249.542 171.625 249.599 171.729 249.777C171.75 249.923 171.735 249.992 171.627 250.088Z" fill="#995D12"/>
<path d="M172.025 250.461C171.813 250.463 171.708 250.399 171.579 250.203C171.534 250.115 171.649 249.986 171.707 249.92C171.876 249.908 171.973 249.983 172.099 250.167C172.142 250.253 172.109 250.439 172.025 250.461Z" fill="#995D12"/>
<path d="M172.379 250.812C172.202 250.846 172.098 250.781 171.981 250.574C171.941 250.483 172.04 250.369 172.091 250.311C172.252 250.317 172.348 250.4 172.474 250.591C172.52 250.678 172.425 250.767 172.379 250.812Z" fill="#995D12"/>
<path d="M170.513 248.807C170.686 248.795 170.79 248.861 170.93 249.022C170.965 249.116 170.847 249.249 170.788 249.316C170.621 249.34 170.523 249.277 170.379 249.127C170.362 249.002 170.403 248.944 170.513 248.807Z" fill="#C57717"/>
<path d="M173.104 251.231C173.189 251.305 173.275 251.379 173.361 251.453C173.265 251.443 173.17 251.432 173.091 251.324C173.108 251.226 173.105 251.23 173.104 251.231Z" fill="#995D12"/>
<path d="M168.966 247.169C168.983 247.345 168.918 247.436 168.751 247.539C168.679 247.578 168.549 247.524 168.503 247.467C168.508 247.351 168.558 247.292 168.685 247.148C168.762 247.063 168.913 247.107 168.966 247.169Z" fill="#E68B1B"/>
<path d="M167.74 246.234C167.919 246.202 167.984 246.259 168.077 246.383C168.077 246.508 168.041 246.58 167.933 246.746C167.752 246.784 167.641 246.727 167.485 246.581C167.505 246.431 167.57 246.371 167.74 246.234Z" fill="#E68B1B"/>
</svg>
