<svg width="87" height="149" viewBox="0 0 87 149" fill="none" xmlns="http://www.w3.org/2000/svg">
<g clip-path="url(#clip0_36_176)">
<path d="M113.331 46.6861C110.047 47.8365 106.778 48.9007 103.545 50.0915C95.4484 53.0744 90.1212 58.6133 87.4815 66.7896C86.2329 70.6571 85.2097 74.5783 84.2704 78.5257C84.1218 79.15 84.1532 80.0365 83.3025 80.0197C82.4608 80.0031 82.5066 79.0892 82.354 78.4808C81.127 73.5887 79.8919 68.7048 77.8612 64.0555C75.2808 58.1474 71.0854 53.8961 65.1195 51.3467C61.7713 49.916 58.3242 48.7935 54.8399 47.7575C54.1572 47.5545 53.0405 47.6384 53.0622 46.6328C53.0835 45.6473 54.2065 45.752 54.8856 45.5424C57.8855 44.6164 60.8538 43.6107 63.7626 42.4297C71.0889 39.4552 76.006 34.2522 78.5395 26.7833C79.8629 22.8817 80.9259 18.9147 81.8463 14.9053C81.9199 14.5846 82.0212 14.2692 82.0772 13.9459C82.1681 13.4206 82.3704 12.9105 82.9576 12.9316C83.5487 12.953 83.6746 13.5319 83.7964 14.0146C84.2657 15.8751 84.6966 17.7458 85.201 19.5968C86.1524 23.089 87.2854 26.5146 88.7905 29.8229C92.0098 36.8991 97.8783 40.7467 104.965 43.1489C107.667 44.0651 110.379 44.9551 113.209 45.8389C113.331 46.068 113.331 46.3153 113.331 46.6861Z" fill="#100F0C"/>
<path d="M0.331421 23.8444C1.01836 23.1544 1.86458 22.9267 2.70828 22.7371C12.131 20.6198 17.8758 14.9608 19.6432 5.4273C19.8726 4.18993 20.2475 2.97939 20.5506 1.75533C20.6698 1.27359 20.7433 0.699476 21.3655 0.669253C22.1078 0.633197 22.162 1.26863 22.295 1.80577C22.9537 4.46607 23.6571 7.11153 24.5091 9.72146C26.3571 15.3828 30.0643 19.2021 35.7119 21.155C37.5314 21.7842 39.3576 22.3943 41.1865 22.996C41.7096 23.1681 42.3789 23.2387 42.3579 23.9315C42.3375 24.6018 41.6695 24.6816 41.149 24.8587C39.0662 25.5675 36.9731 26.25 34.9114 27.0158C29.8924 28.8801 26.6042 32.4166 24.8199 37.4141C23.8405 40.1572 23.0838 42.9568 22.4144 45.7861C22.2858 46.3297 22.3287 47.1477 21.5143 47.1759C20.5763 47.2085 20.6658 46.3402 20.5138 45.7396C19.8547 43.1361 19.1586 40.547 18.3125 37.9924C16.4592 32.3964 12.7681 28.6786 7.21187 26.6513C5.00072 25.8445 2.65382 25.4081 0.448508 24.3307C0.331421 24.2473 0.331421 24.1008 0.331421 23.8444Z" fill="#0E0E0B"/>
<path d="M32.8702 126.246C29.123 117.328 22.1421 112.153 13.4995 108.799C10.3173 107.564 7.10694 106.415 3.84714 105.399C3.30446 105.229 2.50425 105.193 2.52303 104.391C2.54132 103.61 3.3036 103.61 3.86687 103.426C7.11079 102.368 10.3515 101.3 13.592 100.231C24.9645 96.4811 32.2052 88.7752 35.812 77.4809C37.3987 72.5123 38.7606 67.4912 40.012 62.4347C40.1757 61.7733 40.0819 60.7527 40.9855 60.7493C42.0351 60.7455 41.8699 61.8711 42.015 62.5501C43.127 67.7541 44.4296 72.9025 45.9523 78.0074C49.2934 89.2085 56.3685 96.8441 67.4044 100.887C70.6604 102.08 73.9074 103.291 77.214 104.339C77.7314 104.503 78.429 104.587 78.445 105.249C78.4637 106.018 77.722 106.082 77.1448 106.253C73.3972 107.367 69.7011 108.623 66.0285 109.968C55.8847 113.683 49.2138 120.668 45.6779 130.783C43.8464 136.022 42.3975 141.358 41.0907 146.74C40.9872 147.167 40.8692 147.59 40.7865 148.021C40.6983 148.48 40.5573 148.902 40.0124 148.939C39.3558 148.983 39.2168 148.498 39.1021 147.987C38.4419 145.044 37.8162 142.092 37.0956 139.163C36.0211 134.796 34.8002 130.471 32.8702 126.246Z" fill="#0F0E0C"/>
<path d="M100.569 43.0124C103.495 44.3176 106.441 45.2193 109.564 46.4652C93.6093 49.7777 85.8883 60.3082 83.3051 75.707C80.5597 60.3054 72.6309 49.8709 56.4657 46.6231C72.5729 43.2338 80.3363 32.7298 82.5977 17.3268C82.7489 17.41 82.9002 17.4932 83.0514 17.5764C83.3969 18.7851 83.7359 19.9956 84.0896 21.2019C84.4444 22.4119 84.7813 23.6283 85.1822 24.8233C87.0738 30.462 89.5619 35.7297 94.4888 39.4623C96.339 40.864 98.3315 42.0215 100.569 43.0124Z" fill="#FDDA7F"/>
<path d="M22.1434 40.7782C21.8041 41.4739 21.961 42.2251 21.3497 42.7727C20.1392 38.4004 18.9248 34.0714 15.9061 30.571C12.8372 27.0125 8.54677 25.5127 4.16846 23.8424C14.3191 21.5551 19.4764 14.868 21.3125 5.09296C22.4042 7.9252 23.119 10.7972 24.4517 13.4455C25.842 16.2081 27.7583 18.4702 30.3671 20.1707C32.9294 21.841 35.8069 22.7886 38.8166 23.8827C37.1814 24.5096 35.7092 25.0795 34.233 25.639C28.8289 27.6869 25.3188 31.5384 23.4094 36.9037C22.9685 38.1428 22.5847 39.4021 22.1434 40.7782Z" fill="#FCDA7F"/>
<path d="M40.6564 142.231C40.3525 142.95 40.4682 143.676 39.8993 144.293C38.9504 140.357 37.9419 136.523 36.9123 132.694C33.4291 119.742 25.3539 111.13 12.6186 106.795C10.5407 106.087 8.49837 105.276 6.44175 104.507C6.4078 104.494 6.40133 104.409 6.38904 104.376C9.33055 103.333 12.2727 102.291 15.2138 101.246C26.0306 97.4021 33.0971 89.949 36.8033 79.1924C38.3598 74.6748 39.6629 70.09 40.9389 65.0542C41.6025 67.7392 42.1519 70.0413 42.7419 72.3331C44.0168 77.2846 45.5918 82.1229 47.9716 86.6847C51.7224 93.8748 57.7656 98.4287 65.0793 101.512C67.8685 102.688 70.7359 103.68 73.5677 104.755C73.9684 104.908 74.4552 104.894 74.6826 105.296C71.6284 106.375 68.5638 107.437 65.5132 108.538C54.9609 112.346 48.0138 119.644 44.3157 130.133C42.927 134.073 41.7126 138.057 40.6564 142.231Z" fill="#FDDB7F"/>
</g>
<defs>
<clipPath id="clip0_36_176">
<rect width="113" height="149" fill="white"/>
</clipPath>
</defs>
</svg>
