<svg width="87" height="74" viewBox="0 0 87 74" fill="none" xmlns="http://www.w3.org/2000/svg">
<g clip-path="url(#clip0_36_163)">
<path d="M5.51961 42.9559C5.8481 42.0997 6.47449 41.7603 7.2637 41.5027C13.5361 39.4553 19.7952 37.3664 26.0562 35.2839C27.47 34.8137 28.1263 35.3021 28.086 36.8111C27.8208 46.7452 27.5653 56.6797 27.2807 66.6132C27.2571 67.4394 27.4333 67.5854 28.2316 67.3302C31.1299 66.4034 34.0542 65.5586 36.964 64.6673C38.3871 64.2315 39.0904 64.8109 38.8484 66.2839C36.3102 81.7313 33.7654 97.1775 31.2271 112.625C31.0961 113.422 30.8987 114.178 29.8945 114.108C29.1043 114.052 28.8484 113.468 28.7974 112.731C28.5243 108.782 28.2322 104.835 27.9519 100.887C27.5108 94.6724 27.0657 88.4586 26.6479 82.243C26.6065 81.6276 26.4808 81.4836 25.8762 81.7101C23.8277 82.4776 21.7599 83.1933 19.7011 83.9333C18.5599 84.3436 18.0595 84.1125 17.7067 82.9469C14.537 72.4736 11.3756 61.9977 8.20573 51.5244C7.41847 48.9232 6.60947 46.3287 5.72742 43.7102C5.60742 43.4719 5.57044 43.2546 5.51961 42.9559Z" fill="#0E0D0A"/>
<path d="M70.2719 6.20383C70.197 6.41871 70.0855 6.54744 70.0245 6.69709C66.0073 16.5421 61.994 26.3888 57.9815 36.2358C57.9074 36.4177 57.8465 36.6052 57.7458 36.8827C61.429 36.6104 64.9969 36.3502 68.5641 36.0792C69.1163 36.0372 69.6591 35.9396 70.0349 36.5111C70.4396 37.1264 70.1 37.6242 69.8121 38.1316C63.172 49.8316 56.5307 61.531 49.89 73.2307C49.2632 74.335 48.639 75.4409 48.0124 76.5454C47.6454 77.1922 47.2576 77.8871 46.3559 77.451C45.4749 77.025 45.7513 76.2844 45.9677 75.5721C48.5793 66.9752 51.1843 58.3764 53.7871 49.7768C53.8947 49.4216 54.0878 49.0813 54.0154 48.6036C51.4966 48.7084 48.9743 48.8134 46.452 48.9183C45.9397 48.9396 45.4274 48.9614 44.915 48.9816C43.6484 49.0315 43.2652 48.6078 43.4331 47.3057C43.8723 43.9003 44.3185 40.4958 44.7656 37.0915C46.1517 26.5382 47.5397 15.9852 48.9267 5.43212C49.1379 3.82522 49.3473 3.64876 50.9518 3.76253C56.881 4.18295 62.8097 4.61017 68.7396 5.0205C69.2754 5.05758 69.7621 5.10976 70.1083 5.66078C70.2069 5.82189 70.2329 5.97467 70.2719 6.20383Z" fill="#0D0C09"/>
<path d="M26.9893 36.6366C26.7296 46.8033 26.4697 56.8739 26.2126 66.9447C26.1732 68.4845 26.7793 68.9305 28.2354 68.4824C31.1432 67.5875 34.0589 66.7183 36.9636 65.8137C37.6319 65.6055 37.8552 65.6487 37.7202 66.463C35.2214 81.5408 32.7484 96.6229 30.2671 111.704C30.2353 111.897 30.1674 112.084 30.119 112.264C29.6965 112.253 29.7378 111.945 29.7279 111.737C29.2794 102.324 28.4322 92.937 27.8344 83.5336C27.7995 82.9842 27.7738 82.434 27.7265 81.8856C27.6103 80.5388 26.9748 80.1208 25.7219 80.5759C23.7945 81.2761 21.8637 81.9679 19.9504 82.7051C19.2028 82.9931 18.838 83.0389 18.5426 82.0498C14.7128 69.2274 10.8266 56.4218 6.92996 43.6195C6.73609 42.9826 6.92065 42.7877 7.47557 42.6051C13.677 40.565 19.8709 38.5016 26.075 36.4696C26.3376 36.3836 26.7378 35.9186 26.9893 36.6366Z" fill="#F8DA5D"/>
<path d="M47.3083 75.1142C49.8265 66.6577 52.3612 58.2774 54.896 49.8972C54.9655 49.6672 55.0421 49.4392 55.1054 49.2075C55.4339 48.0058 54.9884 47.4397 53.7313 47.4911C50.9642 47.6042 48.1955 47.6976 45.4321 47.8698C44.6627 47.9178 44.4387 47.8174 44.5512 46.9737C46.3859 33.2146 48.1893 19.4511 49.9963 5.68816C50.0601 5.20187 50.045 4.78634 50.7922 4.84219C56.7225 5.28554 62.656 5.68388 68.5884 6.09776C68.7154 6.10662 68.8411 6.13607 69.0336 6.1663C68.8704 6.59354 68.733 6.97566 68.5798 7.35125C64.6908 16.8869 60.8 26.4218 56.91 35.957C56.3001 37.452 56.7005 38.0566 58.2791 37.9463C61.8221 37.6987 65.3632 37.4237 69.1049 37.1449C61.8891 49.8727 54.7398 62.483 47.5347 75.1344C47.4275 75.1804 47.3761 75.1854 47.3083 75.1142Z" fill="#F8DA5D"/>
</g>
<defs>
<clipPath id="clip0_36_163">
<rect width="70" height="106" fill="white" transform="translate(0 11.7428) rotate(-9.65728)"/>
</clipPath>
</defs>
</svg>
